<svg xmlns="http://www.w3.org/2000/svg" xmlns:xlink="http://www.w3.org/1999/xlink" viewBox="0 0 50 50"><path d="M7.7 0h34.6c2.68 0 3.65.28 4.63.8a5.45 5.45 0 0 1 2.27 2.27c.52.98.8 1.95.8 4.62v34.62c0 2.67-.28 3.64-.8 4.62a5.45 5.45 0 0 1-2.27 2.27c-.98.52-1.95.8-4.62.8H7.69c-2.67 0-3.64-.28-4.62-.8A5.45 5.45 0 0 1 .8 46.93c-.52-.98-.8-1.95-.8-4.62V7.69c0-2.67.28-3.64.8-4.62A5.45 5.45 0 0 1 3.07.8C4.05.28 5.02 0 7.69 0zm2.06 12.12a6.35 6.35 0 0 0-3.6 5.25c-.26 3.96-.12 7.93-.14 11.9.1 2.24.06 4.67 1.27 6.63 1.7 2.42 4.82 3.07 7.54 3.1 3.1.1 6.61-.98 8.3-3.86 1-2.32.8-4.96.87-7.45h-7.62c-.02 1.64.05 3.28-.04 4.92-.05.59-.06 1.29-.58 1.67-.67.3-1.74.23-1.95-.65-.33-2.18-.12-4.4-.18-6.6.06-3.46-.14-6.92.13-10.35-.04-1.52 2.56-1.53 2.52-.02.22 2.19.05 4.4.1 6.59h7.6c0-2.64.18-5.36-.62-7.92-.8-2.21-3.05-3.44-5.16-3.97-2.8-.59-5.84-.54-8.44.76zm27.48.04c-3.4-.15-6.82-.18-10.24-.15V39c3.65-.02 7.3.02 10.93-.02 1.99-.08 4.21-.15 5.76-1.58 1.4-1.55 1.2-3.8 1.28-5.74-.01-4.7.13-9.4-.11-14.1a5.04 5.04 0 0 0-2.34-4.23c-1.6-.91-3.48-1.04-5.28-1.17zm-2.41 4.47c.8.04 2.12-.01 2.22 1.15.24 3.24.05 6.5.1 9.74-.05 1.99.18 4.02-.25 5.96-.31.88-1.38.73-2.07.9V16.62z" fill="#ff8d00"></path></svg>