<svg enable-background="new 0 0 64 64" viewBox="0 0 64 64" xmlns="http://www.w3.org/2000/svg" xmlns:xlink="http://www.w3.org/1999/xlink"><clipPath id="a"><ellipse cx="32" cy="32" rx="31" ry="31"/></clipPath><ellipse cx="32" cy="32" fill="#fff" rx="31" ry="31"/><path d="m32 2.1c8 0 15.5 3.1 21.2 8.8s8.8 13.2 8.8 21.2-3.1 15.5-8.8 21.2c-5.7 5.5-13.2 8.6-21.2 8.6s-15.5-3.1-21.2-8.8c-5.6-5.6-8.7-13.1-8.7-21.1s3.1-15.5 8.8-21.2c5.6-5.6 13.1-8.7 21.1-8.7m0-1.1c-17.1 0-31 13.9-31 31s13.9 31 31 31 31-13.9 31-31-13.9-31-31-31z" fill="#999"/><g clip-path="url(#a)"><path d="m52.8 16.1c-1.5 3.1-3 5.8-4.5 8.1 2.6 3.5 4.4 7.6 5.7 12.1 3.1-.5 5.7-1.3 7.5-2.8.2-4 0-8-.7-11.9-2.8-2.6-5.5-4.4-8-5.5z" fill="#fff"/><path d="m53.4 17.5c2.1 1 4.3 2.6 6.7 4.7.6 3.4.8 7.1.6 10.8-1.3 1-3.2 1.7-5.8 2.1-1.4-4.3-3.1-7.9-5.2-11 1.2-1.8 2.4-4.1 3.7-6.6m-.6-1.4c-1.5 3.1-3 5.8-4.5 8.1 2.6 3.5 4.4 7.6 5.7 12.1 3.1-.5 5.7-1.3 7.5-2.8.2-4 0-8-.7-11.9-2.8-2.6-5.5-4.4-8-5.5z" fill="#999"/></g><g clip-path="url(#a)"><path d="m45.2 4.1v2.7c-4.4-1.7-8.7-2.1-12.8-1.3-1.5-1.4-3.8-3.1-6.4-3.9 7.3-1.9 13.9-.3 19.2 2.5z" fill="#fff"/><path d="m32.3 1.8c4 0 8 1 11.9 2.9v.5c-2.6-.8-5.2-1.3-7.7-1.3-1.2 0-2.5.1-3.7.3-.8-.5-1.9-1.4-3.3-2.2.9-.1 1.9-.2 2.8-.2zm0-1c-2 0-4.1.2-6.2.8 2.6.8 4.9 2.5 6.4 3.9 1.3-.2 2.7-.4 4.1-.4 2.8 0 5.8.5 8.8 1.7v-2.7c-3.9-1.9-8.3-3.3-13.1-3.3z" fill="#999"/></g><g clip-path="url(#a)"><path d="m11.7 8.6c-1.8 2.3-3 4.8-3.9 7.5-2.9 2-5 4.9-6.8 8.1 1.8-6.5 5-11.9 10.7-15.6z" fill="#fff"/><path d="m7.6 13.5c-.3.6-.5 1.3-.7 2-.5.4-1.1.8-1.7 1.4.7-1.2 1.5-2.4 2.4-3.4m4.1-4.9c-5.7 3.7-8.9 9.1-10.7 15.7 1.8-3.2 3.8-6.1 6.8-8.1.8-2.7 2.1-5.3 3.9-7.6z" fill="#999"/></g><g clip-path="url(#a)"><path d="m1.5 37.8c-.8 1 .2 2.6.7 4.7 1.5 5 4.8 9.1 9.1 12.5 1.3-.2 2.3-1.1 3-2.4-2.8-3.1-4.8-7-6-11.6-2-.5-4.9-1.5-6.8-3.2z" fill="#fff"/><path d="m2.5 39.8c1.8 1.1 3.8 1.7 4.9 2.1 1.2 4.2 3.1 7.8 5.6 10.8-.4.6-.9 1-1.4 1.1-4.3-3.5-7-7.3-8.3-11.6-.1-.6-.3-1.1-.5-1.6-.1-.3-.2-.5-.3-.8m-1-2c-.8 1 .2 2.6.7 4.7 1.5 5 4.8 9.1 9.1 12.5 1.3-.2 2.3-1.1 3-2.4-2.8-3.1-4.8-7-6-11.6-2-.5-4.9-1.5-6.8-3.2z" fill="#999"/></g><g clip-path="url(#a)"><path d="m33.8 46.7-7.3 9.1c2 2.2 4.7 3.9 8.1 5.2 4.9-.4 9.1-2.1 12.7-5.2.5-2.4.3-5-.4-7.7-4-.6-8.4-1.1-13.1-1.4z" fill="#fff"/><path d="m34.3 47.8c4.1.3 8 .7 11.8 1.2.5 2.3.6 4.4.3 6.2-3.3 2.7-7.2 4.3-11.5 4.7-2.8-1.1-5.1-2.5-6.8-4.2zm-.5-1.1-7.3 9.1c2 2.2 4.7 3.9 8.1 5.2 4.9-.4 9.1-2.1 12.7-5.2.5-2.4.3-5-.4-7.7-4-.6-8.4-1.1-13.1-1.4z" fill="#999"/></g><g fill="#999"><path clip-path="url(#a)" d="m25.3 15.7c-.1 0-.1 0 0 0-.4-.1-.6-.3-.5-.6.8-4.7 4.2-9.5 7.4-10.6.3-.1.6.1.7.3s-.1.5-.4.6c-2.9 1-6 5.6-6.7 9.8 0 .3-.3.5-.5.5z"/><path clip-path="url(#a)" d="m53.7 17.7c-.2 0-.4-.2-.5-.4-2-7.3-5.7-9.6-9.2-10.9-.3-.1-.4-.4-.3-.7s.4-.4.7-.3c2.4.9 4.3 2.1 5.8 3.8 1.8 1.9 3.1 4.5 4 7.9.1.3-.1.6-.4.6z"/><path clip-path="url(#a)" d="m48.9 24.8c-.2 0-7.5-1.2-16.7-1-.3 0-.5-.2-.5-.5s.2-.5.5-.5c9.3-.2 16.7 1 16.8 1 .3 0 .5.3.4.6 0 .2-.2.4-.5.4z"/><path clip-path="url(#a)" d="m34.1 47.8c-.2 0-.5-.2-.5-.4 0-.1-1.6-6.2-7.9-13.6-.2-.2-.2-.6.1-.7.2-.2.6-.2.7.1 6.6 7.6 8.1 13.8 8.2 14 .1.3-.1.6-.4.6-.2 0-.2 0-.2 0z"/><path clip-path="url(#a)" d="m46.5 49.2c-.1 0-.3-.1-.4-.2-.2-.2-.2-.5 0-.7 6.9-6.9 7.7-13.1 7.7-13.1 0-.3.3-.5.6-.5s.5.3.5.6-.8 6.6-8 13.8c-.1 0-.3.1-.4.1z"/><path clip-path="url(#a)" d="m25.1 56.5c-2.3 0-6.3-.6-12-3.6-.3-.1-.4-.5-.2-.7.1-.3.5-.4.7-.2 9 4.7 13.5 3.2 13.6 3.2.3-.1.6.1.7.3.1.3-.1.6-.3.7-.1 0-.9.3-2.5.3z"/><path clip-path="url(#a)" d="m8.2 43.3c-.3 0-.5-.3-.5-.5.4-9.6 6.6-11.8 6.9-11.9s.6.1.7.3c.1.3-.1.6-.3.7s-5.8 2-6.1 10.9c-.2.2-.4.5-.7.5z"/><path clip-path="url(#a)" d="m15.3 21.4c-.1 0-.1 0-.2 0s-.2-.1-.3-.2c-.9-1-4.3-4.2-8.3-4.7-.3 0-.5-.3-.5-.6s.3-.5.6-.5c4.3.5 8 4 9 5 .2.1.2.4.1.6 0 .3-.2.4-.4.4z"/></g><g clip-path="url(#a)"><path d="m34.6 60.4s-.1 1.4-2.2 2.6" fill="#fff"/><path d="m32.4 63.5c-.2 0-.4-.1-.5-.3-.1-.3 0-.6.2-.7 1.7-1 1.9-2.1 1.9-2.1 0-.3.3-.5.6-.5s.5.3.5.6c0 .1-.1 1.7-2.4 3-.1 0-.2 0-.3 0z" fill="#999"/></g><path clip-path="url(#a)" d="m50.5 56.8c-1.4 0-3.1-.6-3.8-.8-.3-.1-.4-.4-.3-.7s.4-.4.7-.3c2 .7 3.8.9 4.1.6.2-.2.6-.2.7.1.2.2.2.6-.1.7-.2.3-.8.4-1.3.4z" fill="#999"/><path clip-path="url(#a)" d="m62.7 36.6c-.3 0-.5-.2-.5-.5s-.8-1.7-1.5-2.8c-.2-.2-.1-.6.2-.7.2-.2.6-.1.7.2.4.6 1.6 2.5 1.6 3.3.1.2-.1.5-.5.5z" fill="#999"/><g clip-path="url(#a)"><path d="m25.7 14c3.4 2.4 5.9 5.7 8 9.4-1.9 4.4-4.1 8.2-6.7 11.2-4.8-.1-9.2-1-13.2-2.5-.5-4.6-.6-8.9 0-12.6 3.2-2.9 7.1-4.7 11.9-5.5z" fill="#fff"/><path d="m25.4 15.1c2.7 2 5 4.8 7.1 8.3-1.7 4-3.7 7.4-6 10-4.2-.2-8.2-.9-11.8-2.2-.4-4.4-.4-8.1 0-11.3 3-2.4 6.5-4 10.7-4.8m.3-1.1c-4.8.8-8.7 2.6-11.9 5.5-.6 3.7-.5 8 0 12.6 4.1 1.6 8.5 2.4 13.2 2.5 2.6-3 4.8-6.7 6.7-11.2-2.1-3.7-4.6-7-8-9.4z" fill="#999"/></g><path d="m43.3 3.1c1.4 3.5 2.1 7.3 2.1 11.3 0 17.1-13.9 31-31 31-4 0-7.8-.7-11.3-2.1 4.5 11.5 15.8 19.7 28.9 19.7 17.1 0 31-13.9 31-31 0-13.1-8.2-24.4-19.7-28.9z" opacity=".05"/><path d="m49.1 6.1c3.2 4.9 5.1 10.8 5.1 17.1 0 17.1-13.9 31-31 31-6.3 0-12.2-1.9-17.1-5.1 5.6 8.4 15.1 13.9 25.9 13.9 17.1 0 31-13.9 31-31 0-10.8-5.5-20.3-13.9-25.9z" opacity=".05"/></svg>