<svg xmlns="http://www.w3.org/2000/svg" viewBox="0 0 323.68 148.94">
  <style>
    .st0{fill:#5d687e}
  </style>
  <title>NGB</title><path class="st0" d="M237.91,78.51a74.44,74.44,0,0,1-74.29,70.43c-1.36,0-2.73,0-4.1-.11a74.78,74.78,0,0,1-62.18-40.31,73.29,73.29,0,0,1-8.22-31.8C88,38.85,116.13,5.53,153.7.64a74.24,74.24,0,0,1,58.22,17.25s-14-8.06-34.67-8.22c-30.94-.24-54.8,22.56-54.8,52.07a61.7,61.7,0,0,0,8.88,30.39l.83,1.19L101.6,106.59c8.64,17.13,26.14,30.12,45.35,31.16h.27c22.67,1.1,44-12.42,52.33-33.54a53.58,53.58,0,0,0,2.39-32L169,86.43a1.6,1.6,0,0,1-2.11-.83l-6.59-15.28a1.6,1.6,0,0,1,.85-2.11l67.8-29.41s.63,1.23.78,1.51A74.35,74.35,0,0,1,237.91,78.51Zm85.77,20.43c-.07,17.65-13.23,35.53-38.22,35.56v-.12H254.19v.05H236.25a4.84,4.84,0,0,1-4.84-4.83V112.46a77.73,77.73,0,0,0,1.24-73.67l-.66-1.3L287.2,13.65a29.26,29.26,0,0,1,2.94.3c18.11,2.92,27.49,18.48,27.41,33.78a36.11,36.11,0,0,1-8.11,23A34.91,34.91,0,0,1,323.68,98.94ZM254.19,63h30.18v-.08c.38,0,.73,0,1.1.06C296.11,62.8,299,53.29,299,47.64c0-7.16-3.83-15.57-14.86-15.69h-30Zm51,35.86c0-7.72-5.16-16.72-19.69-17.37l-.23,0H254.19v34.36h31.62v.1C299.13,115.79,305.14,107.29,305.17,98.86ZM85.78,74.47a77.32,77.32,0,0,1,14.65-45.36l-.21-11.71a3.6,3.6,0,0,0-3.6-3.54H81a3.6,3.6,0,0,0-3.6,3.6v79.9L34,15.81a3.57,3.57,0,0,0-3.17-1.91l-27.19,0A3.59,3.59,0,0,0,0,17.47V130.19a3.6,3.6,0,0,0,3.6,3.6H19.18a3.6,3.6,0,0,0,3.6-3.6v-86L64.1,122.7l30.14-13A76.91,76.91,0,0,1,85.78,74.47Z"/></svg>
