<svg enable-background="new 0 0 64 64" viewBox="0 0 64 64" xmlns="http://www.w3.org/2000/svg"><path d="m14.6 11.9-9.1 13.6c-.2.3-.2.6 0 .9l13.8 19.1c.1.2.2.4.1.6l-3.8 15.6c-.1.5.2.9.7.9h30.3c.4 0 .8-.3.8-.8v-12c0-.2.1-.4.2-.5l6.6-7.6c.1-.1.2-.3.2-.5v-5.7c0-.7-.8-1-1.3-.5l-1.5 1.5c-.2.2-.6.3-.8.2l-18.6-8.2c-.6-.3-1.3.4-1 1l6.5 13.6c.2.3.1.7-.3 1l-1.8 1.2c-.4.3-.9.1-1.1-.3l-8.8-17c-.1-.3-.4-.4-.7-.4l-8.1.1c-.4 0-.8-.3-.8-.8l.1-2.7c0-.4.4-.7.8-.7l12.2.3c.3 0 .5-.1.6-.3l2.1-3.1c.3-.4.1-.9-.3-1.1l-16.3-7.8c-.1-.1-.5 0-.7.4z" fill="#f9c795"/><g fill="#ddae85"><path d="m28 21.5-12.2-.3c-.4 0-.8.3-.8.7v4.7c0 .4.3.8.8.8h.6v-3c0-.4.4-.7.8-.7l12.2.3c.3 0 .5-.1.6-.3l2.1-3.1c.3-.4.1-.9-.3-1.1l-1.4-.7-1.7 2.6c-.2 0-.4.2-.7.1z"/><path d="m21.5 12.4c-2-1-2.8-3.4-1.8-5.4l1.1-2.3c1-2 3.4-2.8 5.4-1.8s2.8 3.4 1.8 5.4l-1 2.4c-1 1.9-3.5 2.7-5.5 1.7z"/><path d="m31.6 17.5c-2-1-2.8-3.4-1.8-5.4l1.1-2.3c1-2 3.4-2.8 5.4-1.8s2.8 3.4 1.8 5.4l-1.1 2.3c-1 2-3.4 2.8-5.4 1.8z"/><path d="m39 26.4c-2-1-2.8-3.4-1.8-5.4l3.2-6.4c1-2 3.4-2.8 5.4-1.8s2.8 3.4 1.8 5.4l-3.2 6.4c-1 2-3.4 2.8-5.4 1.8z"/><path d="m49 31.5c-2-1-2.8-3.4-1.8-5.4l3.2-6.4c1-2 3.4-2.8 5.4-1.8s2.8 3.4 1.8 5.4l-3.2 6.4c-1 2-3.4 2.8-5.4 1.8z"/></g><g fill="#f9c795"><path d="m22.1 11.2c-2-1-2.8-3.4-1.8-5.4l1.1-2.3c1-2 3.4-2.8 5.4-1.8s2.8 3.4 1.8 5.4l-1.1 2.3c-1 2-3.4 2.8-5.4 1.8z"/><path d="m32.1 16.2c-2-1-2.8-3.4-1.8-5.4l1.1-2.3c1-2 3.4-2.8 5.4-1.8s2.8 3.4 1.8 5.4l-1.1 2.3c-1 2-3.4 2.8-5.4 1.8z"/><path d="m39.6 25.2c-2-1-2.8-3.4-1.8-5.4l3.2-6.4c1-2 3.4-2.8 5.4-1.8s2.8 3.4 1.8 5.4l-3.2 6.4c-1 2-3.5 2.8-5.4 1.8z"/><path d="m49.6 30.2c-2-1-2.8-3.4-1.8-5.4l3.2-6.4c1-2 3.4-2.8 5.4-1.8s2.8 3.4 1.8 5.4l-3.2 6.4c-1 2-3.5 2.8-5.4 1.8z"/></g></svg>