<?xml version="1.0" standalone="no"?>
<!DOCTYPE svg PUBLIC "-//W3C//DTD SVG 20010904//EN"
 "http://www.w3.org/TR/2001/REC-SVG-20010904/DTD/svg10.dtd">
<svg version="1.0" xmlns="http://www.w3.org/2000/svg"
 width="548.000000pt" height="256.000000pt" viewBox="0 0 548.000000 256.000000"
 preserveAspectRatio="xMidYMid meet">

<g transform="translate(0.000000,256.000000) scale(0.100000,-0.100000)"
fill="#ffdd53" stroke="none">
<path d="M535 2463 c-49 -110 -271 -590 -403 -870 l-100 -213 142 0 143 0 -5
30 c-3 20 8 55 33 109 l38 80 133 3 132 3 -33 73 -34 72 -61 0 c-71 0 -70 -12
-12 117 20 45 39 83 42 83 3 0 57 -111 119 -247 77 -167 114 -260 115 -285 l1
-38 172 0 172 0 -29 63 c-15 34 -137 293 -269 576 -133 283 -241 518 -241 523
0 27 -21 -3 -55 -79z"/>
<path d="M4325 2259 c-27 -16 -70 -32 -95 -35 l-45 -6 -190 -406 c-105 -223
-191 -409 -193 -414 -2 -4 57 -8 130 -8 l134 0 -4 35 c-3 24 5 54 26 99 l31
65 150 3 150 3 -32 65 -32 65 -83 0 c-45 0 -82 2 -82 5 0 3 25 59 55 125 l54
119 20 -45 c11 -24 71 -154 134 -289 l115 -245 137 -3 137 -3 -30 26 c-37 31
-88 129 -271 524 -78 167 -147 313 -154 326 l-12 23 -50 -29z"/>
<path d="M1152 2189 c23 -30 23 -33 26 -415 l3 -384 154 0 155 0 -20 33 c-19
30 -20 51 -20 339 l0 306 143 4 c78 2 146 1 150 -3 5 -4 6 -37 2 -74 -6 -48
-14 -74 -30 -93 -22 -25 -30 -27 -129 -32 l-105 -5 80 -175 c88 -189 131 -262
185 -310 l35 -30 142 0 142 0 -73 75 c-61 64 -82 96 -133 201 -34 69 -60 127
-58 128 2 2 22 13 44 24 22 11 54 35 72 54 55 56 66 98 71 251 l4 137 -431 0
-432 0 23 -31z"/>
<path d="M2100 1805 l0 -415 358 0 357 0 0 90 c0 50 -3 90 -7 90 -5 0 -8 -4
-8 -9 0 -22 -73 -31 -251 -31 l-189 0 0 100 0 100 150 0 150 0 30 60 c16 33
30 64 30 70 0 6 -63 10 -180 10 l-180 0 0 105 0 105 173 0 c169 0 237 -9 267
-35 13 -12 15 -3 13 78 l-2 92 -355 3 -356 2 0 -415z"/>
<path d="M2910 1805 l0 -415 150 0 150 0 -17 27 c-15 23 -19 55 -21 198 -2 93
-2 190 0 215 l3 45 163 -242 162 -243 135 0 134 0 3 389 c3 354 5 391 21 408
9 11 17 23 17 26 0 4 -70 7 -155 7 l-155 0 -2 -241 -3 -241 -160 239 -160 238
-132 3 -133 3 0 -416z"/>
<path d="M4894 1746 c-17 -7 -41 -28 -54 -45 -68 -96 -1 -224 117 -224 99 0
170 109 128 197 -33 70 -122 103 -191 72z m103 -61 c27 -19 39 -75 24 -104 -7
-12 -23 -28 -36 -37 -52 -34 -115 26 -100 95 12 54 68 77 112 46z"/>
<path d="M5140 1589 c0 -168 0 -168 43 -131 12 11 17 30 17 74 l0 58 45 0 c34
0 47 5 55 19 15 30 14 31 -46 31 l-55 0 3 33 3 32 68 -1 c64 -1 67 1 67 23 0
23 -2 23 -100 23 l-100 0 0 -161z"/>
<path d="M2391 1297 c-19 -12 -64 -28 -99 -37 l-64 -16 -172 -369 c-95 -204
-182 -390 -194 -414 -12 -25 -22 -46 -22 -48 0 -2 63 -3 141 -3 103 0 138 3
133 11 -13 22 -5 68 22 129 l27 60 153 0 c85 0 154 2 154 4 0 2 -13 33 -30 68
l-30 63 -89 5 -89 5 58 124 59 124 41 -89 c22 -49 84 -182 137 -296 l97 -208
132 0 131 0 -31 33 c-20 21 -100 181 -225 448 -107 228 -197 417 -200 421 -3
4 -22 -3 -40 -15z"/>
<path d="M3865 1266 c-223 -55 -367 -272 -334 -502 37 -260 300 -435 554 -369
204 54 335 223 335 435 0 295 -269 507 -555 436z m160 -177 c26 -7 63 -28 89
-50 136 -120 111 -369 -44 -449 -85 -43 -161 -33 -234 31 -147 130 -102 409
75 464 55 17 61 17 114 4z"/>
<path d="M884 1207 c34 -36 89 -146 306 -616 145 -315 267 -574 271 -577 8 -4
149 306 149 327 -1 8 -94 214 -208 459 l-208 445 -175 3 -176 2 41 -43z"/>
<path d="M1750 1235 c21 -25 6 -64 -116 -321 l-117 -244 64 -130 64 -130 170
362 c94 198 182 387 197 420 l27 58 -151 0 c-133 0 -149 -2 -138 -15z"/>
<path d="M2893 1238 c43 -33 47 -68 47 -458 l0 -370 342 0 342 0 -43 43 c-24
23 -52 60 -63 82 -11 22 -21 41 -22 42 -1 1 -20 -4 -41 -12 -24 -9 -81 -14
-142 -15 l-103 0 0 350 0 350 -167 0 c-136 0 -164 -2 -150 -12z"/>
<path d="M4485 1233 c9 -9 21 -27 26 -40 5 -13 9 -195 9 -404 l0 -379 162 0
c155 0 160 1 145 18 -29 32 -37 118 -37 398 l0 274 125 2 c69 1 137 2 153 2
23 1 28 -4 30 -28 7 -58 -9 -118 -38 -148 -27 -27 -32 -28 -129 -28 -56 0
-101 -3 -101 -6 0 -9 170 -372 197 -420 14 -24 44 -65 68 -91 l43 -48 151 -5
c83 -3 151 -4 151 -4 0 1 -31 33 -70 73 -61 62 -80 90 -145 223 -66 135 -73
154 -59 163 78 47 113 77 139 119 29 48 30 53 33 198 l4 148 -437 0 c-406 0
-435 -1 -420 -17z"/>
</g>
</svg>
