<svg xmlns="http://www.w3.org/2000/svg" viewBox="0 0 290.03 296.74">  <style>
  .st0{fill:#5d687e}
</style><title>ResGambNew</title><path class="st0" d="M219.86,71l0,0A34.78,34.78,0,0,0,183.61,60.7a102.18,102.18,0,0,0-39.26-20.12v0a34.82,34.82,0,0,0-28.11,4.13C100.09,54.93,96,75.39,105,91.71c5.58,10.16,19.17,14.68,19.17,14.68,20.34,6.07,29.41,14.06,38.83,29a68.7,68.7,0,0,1,1.17,71.07l-1,0a42.79,42.79,0,0,1-18-81.64c-8.33-9-19.67-10.93-23-11.82C106,108.71,93.56,94.89,93.56,77.46c0-1.46.29-3,.17-4.44-9.14,3.54-17.36,9.91-24.34,16.7A89.57,89.57,0,0,0,44.91,176,92.16,92.16,0,0,0,72.2,221.2c17.37,15.75,40.29,24.72,63.54,26.57,19.42,1.56,39.57-3.32,56.61-12.63a105.72,105.72,0,0,0,55.13-92.81v-.05A105.3,105.3,0,0,0,219.86,71ZM141.75,242a100.19,100.19,0,0,1-18.63-1.75c37.9-4.16,67.19-36.06,68.17-76,.44-18.25-6.24-36.05-19.32-51.48A28.74,28.74,0,0,1,215.32,75l3.74,4.27A99.74,99.74,0,0,1,141.75,242Zm-129-107.43L12.65,131a4.72,4.72,0,0,0,2.89-1,3.72,3.72,0,0,0,1.1-2.54,3.87,3.87,0,0,0-.58-2.7,2.42,2.42,0,0,0-1.78-1.05,1.84,1.84,0,0,0-1.19.27,2.87,2.87,0,0,0-.93,1.23c-.19.41-.55,1.35-1.07,2.82a9.42,9.42,0,0,1-2.23,3.91,5.15,5.15,0,0,1-4,1.31,5.29,5.29,0,0,1-2.68-1,5,5,0,0,1-1.77-2.4A8.61,8.61,0,0,1,0,126.25a7.15,7.15,0,0,1,2-4.93A5.75,5.75,0,0,1,6.4,119.9l-.12,3.63a3.29,3.29,0,0,0-2.21.81,3.45,3.45,0,0,0-.83,2.23,3.92,3.92,0,0,0,.5,2.52,1.43,1.43,0,0,0,1.14.68,1.5,1.5,0,0,0,1.21-.43,9.09,9.09,0,0,0,1.55-3.21,17,17,0,0,1,1.69-3.78,5.27,5.27,0,0,1,2.11-1.81,6,6,0,0,1,3.12-.44,6,6,0,0,1,3,1.12,5.27,5.27,0,0,1,1.94,2.6,9.41,9.41,0,0,1,.39,4,7.35,7.35,0,0,1-2.1,5.06A7.48,7.48,0,0,1,12.74,134.59ZM11,116.67a13.07,13.07,0,0,1-4.6-2,9.13,9.13,0,0,1-2.17-2.26,7.06,7.06,0,0,1-1.14-2.67,9.34,9.34,0,0,1,.17-3.94,8.07,8.07,0,0,1,4.06-5.52c2.09-1.12,4.65-1.29,7.7-.53a10.61,10.61,0,0,1,6.53,4.06,8.09,8.09,0,0,1,1.07,6.77,8.1,8.1,0,0,1-4.05,5.55A10.4,10.4,0,0,1,11,116.67ZM11.8,113a7.52,7.52,0,0,0,5.14-.16,4.6,4.6,0,0,0,1.7-6.92,7.78,7.78,0,0,0-4.55-2.57,7.58,7.58,0,0,0-5.12.12,4.38,4.38,0,0,0-2.43,3.09,4.49,4.49,0,0,0,.75,3.9A7.67,7.67,0,0,0,11.8,113ZM7.43,92.51l1.42-3.33,9.6,4.13a23.42,23.42,0,0,0,3,1.15,3.14,3.14,0,0,0,2.18-.27,3.65,3.65,0,0,0,1.59-1.91,3.5,3.5,0,0,0,.28-2.41,2.7,2.7,0,0,0-1.16-1.52,23.32,23.32,0,0,0-2.95-1.44L11.6,82.69,13,79.36l9.31,4a27.48,27.48,0,0,1,4.4,2.2,5.24,5.24,0,0,1,2.43,4.52,8.78,8.78,0,0,1-.81,3.4,9.31,9.31,0,0,1-2.11,3.33,5.41,5.41,0,0,1-2.34,1.27,5.27,5.27,0,0,1-2.36.09,24.66,24.66,0,0,1-4.64-1.6ZM34.34,80.75,20.62,72.44,17.88,77l-2.8-1.7,7.34-12.19,2.79,1.7-2.73,4.54L36.2,77.66Zm5.59-9.06-15-12.13,2.27-2.82,5.92,4.78L37.53,56l-5.91-4.78,2.26-2.81,15,12.13-2.27,2.81-6.57-5.3-4.44,5.51,6.57,5.31ZM67.48,43.76l-3,2.54-4-2.34L55,48.58l1.71,4.3-2.93,2.47L46.6,36.12l2.92-2.46Zm-10-1.53-6.52-3.87,2.78,7Zm11.25.88L58.18,26.93,68.5,20.27,70.28,23,63,27.7l2.49,3.84,6.29-4.06,1.78,2.74-6.29,4.05,4.48,6.88Zm12.42-7.88L72.71,17.87l6.87-3.28a12.22,12.22,0,0,1,4-1.34,4.18,4.18,0,0,1,2.68.77,5.92,5.92,0,0,1,2,2.39,5.34,5.34,0,0,1,.49,3.74,5.5,5.5,0,0,1-2.41,3.14,8.46,8.46,0,0,1,2.45.62A21.64,21.64,0,0,1,92,25.84l3.62,2.44-3.9,1.87L87.57,27.5a27.29,27.29,0,0,0-3-1.73,2.79,2.79,0,0,0-1.33-.25,5.41,5.41,0,0,0-1.74.59l-.66.31,3.51,7.25Zm-1.6-11.58L82,22.5a12.92,12.92,0,0,0,2.83-1.62,2,2,0,0,0,.56-1.17A2.62,2.62,0,0,0,85,18.25,2.38,2.38,0,0,0,83.91,17,2.18,2.18,0,0,0,82.35,17c-.28.09-1.08.45-2.41,1.08L77.4,19.25ZM97.09,28,90.31,10l3.4-1.25,6.78,18.05Zm15.44-12.19,3.71.25a8.41,8.41,0,0,1-1.36,5.21,7.17,7.17,0,0,1-4.2,2.7,7.48,7.48,0,0,1-6.36-1,10.53,10.53,0,0,1-4.12-6.33q-1.28-4.63.26-7.8a7.57,7.57,0,0,1,5.17-4.13,7.21,7.21,0,0,1,5.72.64,7.81,7.81,0,0,1,2.71,2.94l-3.22,1.82a4.18,4.18,0,0,0-1.91-1.94,3.62,3.62,0,0,0-2.6-.21,4,4,0,0,0-2.72,2.32q-.8,1.8.12,5.12,1,3.53,2.56,4.71a3.9,3.9,0,0,0,3.48.68,3.47,3.47,0,0,0,2.14-1.6A5.78,5.78,0,0,0,112.53,15.84Zm23.8,3.39-3.91.5-2.15-4.13-7.12.93-.87,4.53-3.82.49,4.31-20,3.8-.5Zm-7.66-6.69-3.43-6.76-1.43,7.39Zm9.05,6.71L137.55,0h3.53l7.47,12.84L148.44,0h3.37L152,19.23h-3.64L141,6.7l.11,12.54ZM162,20.1l3.3-18.92,7.53,1.36a12.63,12.63,0,0,1,4,1.26A4.32,4.32,0,0,1,178.56,6a5.92,5.92,0,0,1,.25,3.12A5.32,5.32,0,0,1,177,12.42a5.55,5.55,0,0,1-3.81,1.11,8.51,8.51,0,0,1,1.64,1.94,21.21,21.21,0,0,1,1.5,3.44L177.87,23l-4.28-.77-1.86-4.59a28,28,0,0,0-1.4-3.13,2.86,2.86,0,0,0-.94-1,5.65,5.65,0,0,0-1.76-.54l-.73-.13-1.37,7.9Zm5.48-10.27,2.65.48a12.9,12.9,0,0,0,3.25.35,2,2,0,0,0,1.14-.62,2.56,2.56,0,0,0,.61-1.35,2.42,2.42,0,0,0-.21-1.63,2.2,2.2,0,0,0-1.21-1c-.29-.09-1.15-.27-2.6-.53L168.27,5Zm11.76,13.65L184.9,5.15l12.73,4-1,3.09L187.4,9.35l-1.26,4.06,8.62,2.74-1,3.09-8.62-2.74-1.55,5,9.59,3.05-1,3.08Zm17.14-1,3.37,1.15a4.68,4.68,0,0,0,0,3.07,3.73,3.73,0,0,0,2,1.92,3.87,3.87,0,0,0,2.73.39,2.43,2.43,0,0,0,1.58-1.32,1.88,1.88,0,0,0,.14-1.2,3,3,0,0,0-.85-1.31c-.32-.32-1.09-1-2.3-2a9.57,9.57,0,0,1-2.94-3.45,5.27,5.27,0,0,1,1.94-6.37,4.92,4.92,0,0,1,2.85-.83,8.63,8.63,0,0,1,3.5.88,7.34,7.34,0,0,1,4,3.58,5.77,5.77,0,0,1-.12,4.6l-3.37-1.37a3.44,3.44,0,0,0,0-2.35A3.55,3.55,0,0,0,207,16.35a4,4,0,0,0-2.54-.41,1.43,1.43,0,0,0-1,.85,1.51,1.51,0,0,0,0,1.28A9.24,9.24,0,0,0,206,20.64a16.65,16.65,0,0,1,3,2.9,5.21,5.21,0,0,1,1,2.61,6.08,6.08,0,0,1-.61,3.08,6,6,0,0,1-2.07,2.45,5.16,5.16,0,0,1-3.09.92,9.61,9.61,0,0,1-3.85-1,7.55,7.55,0,0,1-4.08-3.73A7.57,7.57,0,0,1,196.33,22.5Zm12.89,13,10.11-16.29,5,3.1a20.23,20.23,0,0,1,3.52,2.53,4.75,4.75,0,0,1,1.21,3,6.3,6.3,0,0,1-1.08,3.73,6.71,6.71,0,0,1-2.08,2.2,5.25,5.25,0,0,1-2.3.8,5.19,5.19,0,0,1-2.08-.23,20.06,20.06,0,0,1-3.34-1.77l-2-1.26-3.81,6.15Zm11.49-11.61-2.87,4.63,1.69,1.05a8.72,8.72,0,0,0,2.6,1.27,2.35,2.35,0,0,0,1.46-.2,2.6,2.6,0,0,0,1.14-1.05,2.65,2.65,0,0,0,.42-1.77,2.47,2.47,0,0,0-.8-1.49,15.35,15.35,0,0,0-2.15-1.5Zm7.68,12.54a12.89,12.89,0,0,1,3.79-3.24,8.94,8.94,0,0,1,3-.94,6.91,6.91,0,0,1,2.89.18,9.37,9.37,0,0,1,3.47,1.91,8.26,8.26,0,0,1,3.2,6.12,10.54,10.54,0,0,1-2.86,7.14,10.42,10.42,0,0,1-6.49,4,8.15,8.15,0,0,1-6.54-2.07,8.22,8.22,0,0,1-3.23-6.11A10.25,10.25,0,0,1,228.39,36.45Zm3,2.31a7.46,7.46,0,0,0-2.08,4.69,4.67,4.67,0,0,0,5.48,4.62A7.7,7.7,0,0,0,239,45.13a7.55,7.55,0,0,0,2.12-4.64,4.83,4.83,0,0,0-5.56-4.64A7.58,7.58,0,0,0,231.35,38.76Zm5.88,17.81,14.38-12.68L254,46.55l-4.72,14,9.61-8.46,2.24,2.53L246.7,67.28l-2.42-2.73,4.57-13.71-9.38,8.26Zm16.12,9.1,2.25,2.76A4.65,4.65,0,0,0,254,71a3.74,3.74,0,0,0,.7,2.69,3.88,3.88,0,0,0,2.12,1.78,2.41,2.41,0,0,0,2-.27,1.78,1.78,0,0,0,.76-.94,3,3,0,0,0,0-1.55c-.1-.44-.4-1.41-.9-2.89a9.67,9.67,0,0,1-.67-4.47,5.3,5.3,0,0,1,5.05-4.34,5,5,0,0,1,2.86.82,8.7,8.7,0,0,1,2.51,2.6,7.28,7.28,0,0,1,1.48,5.14,5.75,5.75,0,0,1-2.55,3.81l-2.14-3a3.34,3.34,0,0,0,1.23-2,3.52,3.52,0,0,0-.72-2.28,4.05,4.05,0,0,0-2-1.7,1.42,1.42,0,0,0-1.31.17,1.5,1.5,0,0,0-.68,1.09,9.15,9.15,0,0,0,.76,3.49,17,17,0,0,1,1,4A5.12,5.12,0,0,1,263,76a6,6,0,0,1-2.16,2.27,5.94,5.94,0,0,1-3.06,1,5.23,5.23,0,0,1-3.13-.86,9.74,9.74,0,0,1-2.74-2.9,7.52,7.52,0,0,1-1.48-5.31A7.48,7.48,0,0,1,253.35,65.67Zm3.84,17.92,17-8.81L275.92,78l-17.05,8.8Zm21.1-1.08,2.64,6.7a18.61,18.61,0,0,1,1,3,4.47,4.47,0,0,1-.05,2,4.78,4.78,0,0,1-1,1.87A4.61,4.61,0,0,1,279,97.47a4.79,4.79,0,0,1-2.56.26,4.37,4.37,0,0,1-2.25-1.12,4.69,4.69,0,0,1-.7,3,4.81,4.81,0,0,1-2.38,1.87,6.09,6.09,0,0,1-2.59.38,4.79,4.79,0,0,1-4.15-2.68c-.29-.54-.86-1.88-1.73-4l-2.24-5.71Zm-8.77,7.29-4.79,1.84L266,94.78a15.59,15.59,0,0,0,1,2.27,2.26,2.26,0,0,0,1.2,1,2.46,2.46,0,0,0,1.71-.12,2.58,2.58,0,0,0,1.22-.89,2.2,2.2,0,0,0,.4-1.37,11.33,11.33,0,0,0-.92-3.1Zm7.12-2.75-4.14,1.6.87,2.21c.52,1.32.86,2.13,1,2.44a2.36,2.36,0,0,0,1.18,1.12,2.14,2.14,0,0,0,1.59,0,2.21,2.21,0,0,0,1.18-.95,2,2,0,0,0,.13-1.52c-.09-.35-.45-1.32-1.07-2.92ZM266.5,105.9l18.59-4.2.82,3.54-15.43,3.48,2,8.8-3.16.71Zm3.16,14.28,19.17-1.58,1.2,13.27-3.25.27-.87-9.66-4.25.35.81,9-3.23.27-.81-9-5.22.43.9,10-3.23.26ZM23.81,224.33l2.64-1.57,3.85,6.39-6.24,3.73a9.52,9.52,0,0,1-3.33-1.69A11.07,11.07,0,0,1,17.84,228a9,9,0,0,1-1.38-4.64,7.35,7.35,0,0,1,1.4-4.33,11.69,11.69,0,0,1,3.65-3.36,11.1,11.1,0,0,1,4.94-1.63,7.76,7.76,0,0,1,4.61,1.08,8.39,8.39,0,0,1,2.9,3.05,7.77,7.77,0,0,1,1.35,5,6.46,6.46,0,0,1-2.19,4l-2.36-2.59a3.89,3.89,0,0,0,1.12-2.26,4,4,0,0,0-.62-2.54,4.59,4.59,0,0,0-3.18-2.31,6.77,6.77,0,0,0-4.6,1.18A7.41,7.41,0,0,0,20,222.35a4.36,4.36,0,0,0,.44,3.88A5.45,5.45,0,0,0,22,227.87a7.61,7.61,0,0,0,1.92,1l2-1.19Zm10.77,25.73-2.39-2.91,2.26-3.78-4.35-5.31L26,239.59l-2.33-2.85L42,230.38l2.33,2.83Zm1.55-9.5,3.74-6.11-6.71,2.49Zm.85,12,12.29-13.48,3.84,3.5L47,253.86l10.67-7.12,3.84,3.5L49.24,263.72l-2.38-2.17,9.67-10.61-12.19,8.32L41.87,257,49,244.11l-9.68,10.61Zm26.54-.86,5.67,3.87a20.39,20.39,0,0,1,2.41,1.86,4.35,4.35,0,0,1,1.05,1.64,4.55,4.55,0,0,1,.23,2,4.29,4.29,0,0,1-.76,2.06,4.44,4.44,0,0,1-1.86,1.58,4,4,0,0,1-2.36.33A4.5,4.5,0,0,1,69,267.76a4.56,4.56,0,0,1-.85,2.75,5.67,5.67,0,0,1-1.81,1.7,4.79,4.79,0,0,1-2.29.71,4.63,4.63,0,0,1-2.4-.59c-.52-.27-1.69-1-3.52-2.26l-4.83-3.29ZM60.6,262.16l-2.75,4L60.5,268a14.33,14.33,0,0,0,2,1.25,2.14,2.14,0,0,0,1.45.11,2.37,2.37,0,0,0,1.27-1,2.4,2.4,0,0,0,.47-1.36,2.17,2.17,0,0,0-.42-1.31,11.44,11.44,0,0,0-2.39-1.95Zm4.08-6-2.38,3.49,1.88,1.28c1.12.76,1.82,1.21,2.11,1.36a2.19,2.19,0,0,0,1.53.25,2,2,0,0,0,1.22-.89,2.08,2.08,0,0,0,.41-1.38,1.92,1.92,0,0,0-.72-1.27c-.26-.23-1.06-.8-2.41-1.72ZM69,277,77.29,261l3.07,1.61-6.92,13.34,7.63,4-1.41,2.73Zm13.69,6.81L89.77,267,93,268.4l-7.12,16.82Zm7.14,3.1,5.65-17.37,3.19,1.05,2.9,13.81,3.77-11.6,3,1-5.64,17.37-3.3-1.09-2.88-13.5L92.84,288Zm26.89.53.57-3,7.32,1.43L123.22,293a9.1,9.1,0,0,1-3.46,1.34,10.73,10.73,0,0,1-4.26,0,9,9,0,0,1-4.38-2.08,7.51,7.51,0,0,1-2.31-4,11.74,11.74,0,0,1-.08-5,11,11,0,0,1,2-4.77,7.71,7.71,0,0,1,3.85-2.72,8.35,8.35,0,0,1,4.19-.1,7.83,7.83,0,0,1,4.63,2.35,6.6,6.6,0,0,1,1.54,4.32l-3.5,0a3.79,3.79,0,0,0-3.25-3.59,4.51,4.51,0,0,0-3.82.81,6.7,6.7,0,0,0-2.16,4.22,7.52,7.52,0,0,0,.43,5.06,4.44,4.44,0,0,0,3.18,2.28,5.59,5.59,0,0,0,2.23,0,7.12,7.12,0,0,0,2-.73l.43-2.28Zm17.73,9.15.43-18.3,11.73.37-.08,3.1-8.27-.26-.1,4.33,7.14.22-.07,3.1L138,289l-.19,7.78ZM148.75,288a12.19,12.19,0,0,1,.36-4.74,8.55,8.55,0,0,1,1.36-2.63,6.64,6.64,0,0,1,2.06-1.82,8.87,8.87,0,0,1,3.61-1,7.85,7.85,0,0,1,6.25,2,10.12,10.12,0,0,1,2.88,6.77,10,10,0,0,1-1.62,7.1,7.66,7.66,0,0,1-5.78,3,7.81,7.81,0,0,1-6.26-2A9.9,9.9,0,0,1,148.75,288Zm3.53-.41a7.24,7.24,0,0,0,1.76,4.59,4.31,4.31,0,0,0,3.54,1.32,4.15,4.15,0,0,0,3.23-1.86,9.22,9.22,0,0,0-.81-9.45,4.56,4.56,0,0,0-6.84.58A7.3,7.3,0,0,0,152.28,287.6Zm13.93-10.51,3.38-.7,2.09,9.71a21.52,21.52,0,0,0,.77,3,3,3,0,0,0,1.41,1.56,3.52,3.52,0,0,0,2.38.2,3.29,3.29,0,0,0,2-1.08,2.56,2.56,0,0,0,.55-1.73,24.52,24.52,0,0,0-.51-3.08L176.17,275l3.38-.7,2,9.41a27,27,0,0,1,.71,4.62,5.39,5.39,0,0,1-.53,2.46,5.2,5.2,0,0,1-1.65,1.87,8.22,8.22,0,0,1-3.1,1.21,8.83,8.83,0,0,1-3.76.16,5.36,5.36,0,0,1-2.29-1.13,5.17,5.17,0,0,1-1.38-1.79,23.76,23.76,0,0,1-1.31-4.48Zm22.07,13.84-6-17.35,3.18-1.07,10.62,9.34-4-11.58,3-1,6,17.34-3.28,1.11-10.43-9.1,3.92,11.31Zm9.4-22.73,5.67-2.74a11.24,11.24,0,0,1,3.08-1.1,5.62,5.62,0,0,1,3,.4,8.28,8.28,0,0,1,2.78,2,14.32,14.32,0,0,1,2.41,3.66,12.49,12.49,0,0,1,1.25,3.73,8.07,8.07,0,0,1-.21,3.71,6.07,6.07,0,0,1-1.54,2.37,9.58,9.58,0,0,1-2.57,1.68l-5.83,2.82Zm4.47,1.29,5.35,10.92,2.32-1.12a9,9,0,0,0,1.8-1.06,3.12,3.12,0,0,0,.91-1.29,3.83,3.83,0,0,0,0-2,12.79,12.79,0,0,0-1.16-3.17,11.57,11.57,0,0,0-1.76-2.78,4.17,4.17,0,0,0-1.66-1.18,3.25,3.25,0,0,0-1.81-.08,15,15,0,0,0-2.63,1.07Zm33.14-1.56-3.14,2-3.54-2.68L222.9,271l1.11,4.26-3.06,2-4.51-19,3.05-2ZM226,265.3l-5.71-4.42,1.81,7Zm13.18-.63-9.65-11.84L225.6,256l-2-2.41,10.52-8.53,2,2.41-3.92,3.18,9.65,11.84Zm8.72-7.49-12.7-13.29,2.49-2.38,12.7,13.29Zm-1.63-10.75a12.3,12.3,0,0,1-3.06-3.67,8.42,8.42,0,0,1-.87-2.85,6.53,6.53,0,0,1,.18-2.74,8.77,8.77,0,0,1,1.85-3.26A7.68,7.68,0,0,1,250.2,231a11.95,11.95,0,0,1,10.59,9.12,8.47,8.47,0,0,1-7.85,9.12A9.92,9.92,0,0,1,246.26,246.43Zm2.22-2.76a7.26,7.26,0,0,0,4.45,2.08,4.37,4.37,0,0,0,4.44-5.12,7.47,7.47,0,0,0-2.77-4.13,7.31,7.31,0,0,0-4.41-2.11,4.51,4.51,0,0,0-4.45,5.19A7.3,7.3,0,0,0,248.48,243.67Zm18-7.33-15.45-10,1.8-2.82,14.09.78-10.32-6.65,1.72-2.69,15.45,10-1.86,2.9-13.78-.71,10.07,6.5Z" fill="#aeaeaf"/></svg>
