<svg xmlns='http://www.w3.org/2000/svg' width='429' height='138.7' viewBox='-633 407 429 138.7'><path d="M-399.7 493.7c.2.5.3 1.1.4 1.7h-8.7c.2-1.3.6-2.4 1.4-3.2s1.8-1.2 3-1.2c.6 0 1.2.1 1.7.4.5.2.9.6 1.3.9.4.4.6.9.9 1.4zm-31.1-34.4c-.3-.5-.5-1-.9-1.4-.4-.3-.8-.7-1.3-.9s-1.1-.3-1.7-.3c-1.2 0-2.2.4-3 1.2s-1.2 1.9-1.4 3.2h8.7c-.1-.6-.2-1.2-.4-1.8zm133.2 3.8c-1.2 0-2.1.2-2.8.7-.7.4-1 1.1-1 1.9v.1c0 .9.3 1.5.9 1.9s1.4.6 2.3.6c.7 0 1.3-.1 1.8-.3.5-.1 1-.4 1.4-.7s.7-.7.9-1.1c.2-.5.3-1 .3-1.5h0v-.9c-.4-.2-1-.4-1.7-.5-.6-.1-1.4-.2-2.1-.2zm-141.3 29.7c-.5-.5-1-.9-1.6-1.2s-1.3-.4-2.1-.4-1.5.1-2.1.4-1.2.7-1.6 1.2-.8 1.1-1 1.7c-.2.7-.3 1.4-.3 2.1v.1c0 .7.1 1.4.4 2.1.3.6.6 1.2 1.1 1.7s1 .9 1.6 1.2 1.3.4 2.1.4 1.5-.1 2.1-.4 1.2-.7 1.6-1.2.8-1.1 1-1.7c.1-.7.3-1.4.3-2.2 0-.7-.1-1.5-.4-2.1-.3-.7-.6-1.2-1.1-1.7zm57.9-33.4c-.2-.5-.5-1-.9-1.4s-.8-.7-1.3-.9-1.1-.3-1.7-.3c-1.2 0-2.2.4-3 1.2s-1.3 1.9-1.4 3.2h8.7c-.1-.7-.2-1.3-.4-1.8zm65.4 32.8c-.4-.4-.8-.7-1.3-.9s-1.1-.4-1.7-.4c-1.2 0-2.2.4-3 1.2s-1.3 1.9-1.4 3.2h8.7c-.1-.5-.2-1.1-.4-1.7-.2-.5-.5-1-.9-1.4zm97.4-76.8v122.5h-272.3-61.2c-33.8 0-61.3-27.4-61.3-61.2s27.5-61.3 61.3-61.3h61.2 272.3zm-275.2 3h-58.3c-32.1 0-58.3 26.1-58.3 58.3 0 32.1 26.2 58.3 58.3 58.3s58.3-26.1 58.3-58.3v-58.3zm120.9 52.4h.1 3.9v-6.4c0-1.1.1-2.1.4-2.9s.7-1.5 1.2-2.1 1.1-1 1.8-1.2c.7-.3 1.5-.4 2.3-.4h.2v-4.1c-1.5-.1-2.7.3-3.7 1.1s-1.7 1.8-2.3 3.1v-3.8h-3.9v16.7zm-34.7-13.7h2.1v8.9a7.46 7.46 0 0 0 .4 2.4c.2.6.6 1.1 1 1.5.5.4 1 .6 1.6.8s1.3.3 2 .3c.8 0 1.4 0 1.7-.3.6-.1 1.1-.3 1.6-.6v-3.2c-.8.4-1.6.6-2.4.6-.6 0-1.1-.2-1.5-.5-.3-.3-.5-.9-.5-1.6v-8.3h4.5v-3.3h-4.5v-4.6h-3.9v4.6h-2.1v3.3zm-35.6 5.3c0 1.3.2 2.5.7 3.6s1.1 2 1.8 2.8c.8.8 1.7 1.4 2.7 1.8 1.1.4 2.2.6 3.4.6 1.6 0 2.9-.3 4-.9s2.1-1.3 2.9-2.3l-2.3-2c-.7.7-1.4 1.2-2.1 1.5s-1.5.5-2.5.5a4.96 4.96 0 0 1-3.2-1.1c-.9-.7-1.4-1.8-1.6-3.2h12.4v-.6-.5c0-1.2-.2-2.4-.5-3.5s-.9-2.1-1.5-2.9c-.7-.8-1.5-1.5-2.5-2s-2.2-.7-3.5-.7c-1.2 0-2.3.2-3.3.7s-1.9 1.1-2.6 1.9-1.3 1.7-1.7 2.8-.6 2.2-.6 3.5h0zm-13 30.1h-9.5v3.4h5.7v4.2c-.7.5-1.5.9-2.4 1.2s-1.9.5-3 .5-2.2-.2-3.1-.6-1.7-1-2.4-1.7a5.79 5.79 0 0 1-1.5-2.5c-.4-1-.5-2.1-.5-3.2v-.1c0-1.1.2-2.1.6-3 .4-1 .9-1.8 1.5-2.5s1.4-1.3 2.3-1.7 1.8-.6 2.9-.6c.7 0 1.3.1 1.9.2s1.1.3 1.6.5 1 .5 1.4.7c.4.3.9.6 1.3 1l2.5-3c-.6-.5-1.2-.9-1.8-1.3s-1.2-.7-1.9-.9c-.7-.3-1.4-.4-2.2-.6-.8-.1-1.7-.2-2.7-.2a12.29 12.29 0 0 0-4.7.9c-1.4.6-2.6 1.5-3.7 2.5a13.09 13.09 0 0 0-2.4 3.7c-.6 1.4-.9 2.9-.9 4.4v.1c0 1.6.3 3.2.8 4.6.6 1.4 1.3 2.6 2.3 3.6s2.2 1.8 3.7 2.4c1.4.6 3 .9 4.8.9a12.92 12.92 0 0 0 2.9-.3c.9-.2 1.7-.4 2.5-.8.8-.3 1.5-.7 2.2-1.1s1.3-.9 1.8-1.3v-9.4zm3.9-21.6l7.8-22.5h-4.1l-5.3 16.6-5.5-16.7h-3.3l-5.5 16.7-5.3-16.6h-4.3l7.7 22.5h3.4l5.5-16.1 5.5 16.1h3.4zm18.3 25.7h0c0-1.3-.3-2.4-.7-3.5-.5-1.1-1.1-2-1.9-2.8-.7-.8-1.7-1.4-2.8-1.9s-2.3-.7-3.6-.7-2.5.2-3.6.7c-1 .5-2 1.1-2.8 1.9s-1.4 1.7-1.9 2.8c-.5 1-.7 2.2-.7 3.4v.1c0 1.2.3 2.3.7 3.4.5 1.1 1.1 2 1.9 2.8.7.8 1.7 1.4 2.8 1.9s2.3.7 3.6.7 2.5-.2 3.6-.7 2.1-1.1 2.9-1.9 1.4-1.7 1.9-2.8c.4-1.1.7-2.2.6-3.4zm19.5-8.5h-4.1l-4.6 12.4-4.5-12.4h-4.2l7 17h3.5l6.9-17zm2.1-18.4c.6-.4 1-1 1.3-1.6.3-.7.5-1.4.5-2.3v-.1c0-.8-.2-1.4-.5-1.9s-.7-1-1.2-1.4-1.1-.7-1.7-.9c-.6-.3-1.2-.5-1.9-.7-.5-.1-1-.3-1.4-.5-.5-.2-.9-.3-1.2-.5-.4-.2-.6-.4-.8-.6s-.3-.5-.3-.8v-.1c0-.5.2-.9.6-1.2s1-.5 1.7-.5 1.5.1 2.3.4 1.6.7 2.5 1.2l1.5-2.8c-.9-.6-1.9-1.1-3-1.4s-2.2-.5-3.2-.5c-.8 0-1.6.1-2.3.4-.7.2-1.4.6-1.9 1a5.09 5.09 0 0 0-1.3 1.6 4.99 4.99 0 0 0-.5 2.1v.1c0 .8.2 1.5.5 2 .3.6.7 1 1.2 1.4s1.1.7 1.7.9 1.2.4 1.9.6c.5.1 1 .3 1.4.4.5.1.9.3 1.2.5a2.76 2.76 0 0 1 .8.6c.2.2.3.5.3.8v.1c0 .6-.2 1-.7 1.3s-1.1.5-1.9.5c-.9 0-1.8-.2-2.7-.5s-1.9-.9-2.8-1.5l-1.7 2.6c1.1.8 2.2 1.5 3.5 1.9 1.2.4 2.5.6 3.7.6.8.2 1.7.1 2.4-.2.8-.2 1.4-.6 2-1zm16.5 27.2c0-1.2-.2-2.4-.5-3.5s-.9-2.1-1.5-2.9c-.7-.8-1.5-1.5-2.5-2s-2.2-.7-3.5-.7c-1.2 0-2.3.2-3.3.7s-1.9 1.1-2.6 1.9-1.3 1.7-1.7 2.8-.6 2.2-.6 3.4v.1c0 1.3.2 2.5.7 3.6.4 1.1 1.1 2 1.8 2.8.8.8 1.7 1.4 2.7 1.8 1.1.4 2.2.6 3.4.6 1.6 0 2.9-.3 4-.9s2.1-1.3 2.9-2.3l-2.3-2c-.7.7-1.4 1.2-2.1 1.5s-1.5.5-2.5.5a4.96 4.96 0 0 1-3.2-1.1c-.9-.7-1.4-1.8-1.6-3.2h12.4v-.6-.5zm14.2-9c-1.5-.1-2.7.3-3.7 1.1s-1.7 1.8-2.3 3.1v-3.8h-3.9V505h.1 3.9v-6.4c0-1.1.1-2.1.4-2.9s.7-1.5 1.2-2.1 1.1-1 1.8-1.2c.7-.3 1.5-.4 2.3-.4h.2v-4.1zm3.9-19.9l-2.3-2c-.7.7-1.4 1.2-2.1 1.5s-1.5.5-2.5.5c-1.2 0-2.3-.4-3.2-1.1-.9-.8-1.5-1.8-1.7-3.2h12.4v-.6c0-.2 0-.3.1-.5 0-1.2-.2-2.4-.5-3.5s-.8-2.1-1.5-2.9c-.6-.8-1.5-1.5-2.5-2s-2.2-.7-3.5-.7c-1.2 0-2.3.2-3.3.7s-1.9 1.1-2.6 1.9-1.3 1.7-1.7 2.8c-.4 1-.6 2.2-.6 3.4v.1c0 1.3.3 2.5.7 3.6s1 2 1.8 2.8c.7.8 1.6 1.4 2.7 1.8 1 .4 2.2.6 3.4.6 1.5 0 2.9-.3 4-.9s2.1-1.3 2.9-2.3zm15.5 26.3c0-2-.6-3.5-1.6-4.7s-2.5-1.8-4.4-1.8c-.7 0-1.3 0-1.8.2s-1 .4-1.4.7-.8.6-1.1 1c-.3.3-.6.7-.9 1.1v-2.7h-3.9V505h4v-9.5c0-1.3.3-2.4 1-3.1a3.69 3.69 0 0 1 2.7-1.1c1.1 0 2 .4 2.6 1.1s.9 1.7.9 3v9.6h3.9v-10.7zm3.3-23.4h3.9v-9.5c0-1.3.3-2.4 1-3.1a3.69 3.69 0 0 1 2.7-1.1c1.1 0 2 .4 2.6 1.1s.9 1.7.9 3v9.6h3.9v-10.7c0-2-.6-3.5-1.6-4.7s-2.5-1.8-4.4-1.8c-.7 0-1.3 0-1.8.2s-1 .4-1.4.7c-.4.2-.8.5-1.1.9-.3.3-.6.7-.9 1.1v-2.7h-3.8v17zm27.6 23.4c0-2.1-.5-3.7-1.6-4.8-1-1.1-2.5-1.7-4.4-1.7-1.3 0-2.4.3-3.3.8s-1.7 1.3-2.4 2.2c-.4-.9-1.1-1.6-1.9-2.2s-1.9-.8-3.1-.8c-.6 0-1.2.1-1.7.2-.5.2-1 .4-1.4.7s-.8.6-1.1.9-.6.7-.9 1.1v-2.6h-3.9V505h3.9v-9.5c0-1.3.3-2.4 1-3.1s1.5-1.1 2.6-1.1 1.9.4 2.5 1.1.9 1.7.9 3v9.6h3.9v-9.5c0-1.4.3-2.4 1-3.1s1.5-1.1 2.6-1.1 1.9.4 2.5 1.1.9 1.7.9 3.1v9.6h3.9v-10.8zm20.5 2.6c0-1.2-.2-2.4-.5-3.5s-.8-2.1-1.5-2.9c-.6-.8-1.5-1.5-2.5-2s-2.2-.7-3.5-.7c-1.2 0-2.3.2-3.3.7s-1.9 1.1-2.6 1.9-1.3 1.7-1.7 2.8c-.4 1-.6 2.2-.6 3.4v.1c0 1.3.3 2.5.7 3.6s1 2 1.8 2.8c.7.8 1.6 1.4 2.7 1.8 1 .4 2.2.6 3.4.6 1.5 0 2.9-.3 4-.9s2.1-1.3 2.9-2.3l-2.3-2c-.7.7-1.4 1.2-2.1 1.5s-1.5.5-2.5.5c-1.2 0-2.3-.4-3.2-1.1-.8-.8-1.4-1.8-1.6-3.2h12.4v-.6-.5zm2.1-29.6l-2.5-2.6c-1 .9-1.9 1.6-2.9 2.1s-2.2.8-3.5.8c-1.1 0-2.1-.2-3-.6s-1.7-1-2.4-1.7-1.2-1.6-1.5-2.5c-.4-1-.5-2-.5-3.1v-.1c0-1.1.2-2.1.5-3.1.4-1 .9-1.8 1.5-2.5.7-.7 1.4-1.3 2.4-1.7.9-.4 1.9-.6 3-.6 1.3 0 2.4.3 3.4.8a11.02 11.02 0 0 1 2.8 2l2.5-2.9a11.51 11.51 0 0 0-1.7-1.4c-.6-.4-1.2-.8-2-1.1-.7-.3-1.5-.5-2.3-.7s-1.8-.3-2.8-.3c-1.7 0-3.3.3-4.7.9s-2.6 1.4-3.7 2.5a13.09 13.09 0 0 0-2.4 3.7c-.6 1.4-.9 2.9-.9 4.5v.1c0 1.6.3 3.1.9 4.5a13.09 13.09 0 0 0 2.4 3.7c1 1 2.2 1.8 3.6 2.4s2.9.9 4.5.9c1.3-.2 2.2-.2 3.1-.4s1.7-.5 2.4-.8 1.4-.8 2-1.2c.6-.5 1.2-1 1.8-1.6zm17.4 27c0-2-.6-3.5-1.6-4.7s-2.5-1.8-4.4-1.8c-.7 0-1.3 0-1.8.2s-1 .4-1.4.7-.8.6-1.1 1c-.3.3-.6.7-.9 1.1v-2.7h-3.8V505h3.9v-9.5c0-1.3.3-2.4 1-3.1a3.69 3.69 0 0 1 2.7-1.1c1.1 0 2 .4 2.6 1.1s.9 1.7.9 3v9.6h3.9v-10.7zm.9-33.5c0-2.3-.6-4-1.8-5.3-1.2-1.2-3.1-1.9-5.6-1.9-1.4 0-2.6.1-3.6.4s-1.9.6-2.9 1l1.1 3.1c.8-.3 1.5-.6 2.3-.8.7-.2 1.6-.3 2.6-.3 1.3 0 2.4.3 3.1.9s1.1 1.5 1.1 2.7v.3c-.7-.2-1.4-.4-2.1-.5s-1.6-.2-2.6-.2-1.9.1-2.7.3-1.6.6-2.2 1c-.6.5-1.1 1-1.4 1.7s-.5 1.5-.5 2.4v.1c0 .9.2 1.6.5 2.3a5.09 5.09 0 0 0 1.3 1.6c.5.4 1.2.8 1.9 1s1.5.3 2.3.3c1.3 0 2.4-.2 3.3-.7s1.6-1 2.2-1.7v2.1h3.7v-9.8zm13.6 27.4h-4.5v-4.6h-4v4.6h-2.1v3.3h2.1v8.9c0 .9.1 1.7.3 2.4.2.6.6 1.1 1 1.5s1 .7 1.6.8c.6.2 1.3.3 2 .3.7-.1 1.4-.2 1.9-.3.6-.1 1.1-.4 1.6-.6v-3.2c-.8.4-1.6.6-2.4.6-.7 0-1.2-.2-1.5-.5-.4-.3-.5-.9-.5-1.6v-8.3h4.5v-3.3zm9-26.1c0-1.4-.3-2.6-.7-3.7-.5-1-1.1-2-1.8-2.7-.7-.8-1.6-1.3-2.5-1.7s-1.9-.6-2.9-.6c-1.3 0-2.5.3-3.4.9-.9.7-1.7 1.4-2.3 2.3v-2.8h-3.9v22h3.9v-7.7c.6.8 1.4 1.5 2.3 2.1s2 .9 3.4.9c1 0 2-.2 2.9-.6s1.8-1 2.5-1.7c.8-.7 1.4-1.6 1.8-2.7s.6-2.3.7-4h0zm19.8.5c0-1.2-.2-2.4-.5-3.5s-.9-2.1-1.5-2.9c-.7-.8-1.5-1.5-2.5-2s-2.2-.7-3.5-.7c-1.2 0-2.3.2-3.3.7s-1.9 1.1-2.6 1.9-1.3 1.7-1.7 2.8-.6 2.2-.6 3.4v.1c0 1.3.2 2.5.7 3.6s1.1 2 1.8 2.8c.8.8 1.7 1.4 2.7 1.8 1.1.4 2.2.6 3.4.6 1.6 0 2.9-.3 4-.9s2.1-1.3 2.9-2.3l-2.3-2c-.7.7-1.4 1.2-2.1 1.5s-1.5.5-2.5.5a4.96 4.96 0 0 1-3.2-1.1c-.9-.7-1.4-1.8-1.6-3.2h12.4v-.6-.5zm-5.1-4.7c-.4-.3-.8-.7-1.3-.9s-1.1-.3-1.7-.3c-1.2 0-2.2.4-3 1.2s-1.2 1.9-1.4 3.2h8.7c-.1-.6-.2-1.2-.4-1.8-.3-.5-.5-1-.9-1.4zm-20.1.5c-.4-.5-.9-.8-1.5-1.1s-1.2-.4-1.9-.4-1.3.1-1.9.4-1.1.6-1.6 1.1c-.4.5-.8 1-1.1 1.7s-.4 1.4-.4 2.2v.1c0 .8.1 1.5.4 2.2s.6 1.2 1.1 1.7c.4.5 1 .8 1.6 1.1s1.2.4 1.9.4 1.3-.1 1.9-.4 1.1-.6 1.5-1.1.8-1 1-1.7c.3-.7.4-1.4.4-2.3 0-.8-.1-1.5-.4-2.2s-.6-1.2-1-1.7zm-279.3-13.2v.1-.1zm-6.4-5.3l-.2-.1-.1.1.2.2v-.1c0-.1 0-.1.1-.1zm-6.7 9.7l-.2.2h0l-1.1-2.5-2.6-6.1.4-.3c.1.1.2.1.3.2l.6.4c0 .1.1.1.1.1.1 0 .1.1.2.1s.1.1.2.1c.4.3.8.5 1.2.6l.2.1c.1.1.3.1.4.2h.1l.3-.2c.5.7.7 1.8.4 3-.1.4-.2.7-.4 1.1v.1.1c0 .1-.1.1-.1.2-.1.1-.1.2-.2.3v.2h.1.1.1.1.1.1c.4-.1.5-.4.6-.7.1-.2.1-.5.1-.8v-.6l.5.3c.3.2.5.4.6.7.1.2.1.5.1.7a1.78 1.78 0 0 1-1 1.6c-.1.1-.1.1-.2.1h.2.1.1.1.1.1c.2 0 .4-.1.6-.2.4-.3.7-.6.9-1.1 0-.2.1-.5.1-.7v-.4a2.22 2.22 0 0 1-2.2-2.2 2.22 2.22 0 0 1 2.2-2.2 2.22 2.22 0 0 1 2.2 2.2v.1.2.1.2.1c0 .1-.1.1-.1.2v.1c0 .1-.1.1-.1.2v.1c0 .1 0 .1-.1.2l-.1.1-.2.2s-.1.1-.2.1h-.1v.1c.1 0 .1.1.1.1l.1.1.1.1.1.1.1.1c.1 0 .2.1.2.1.4.3.9.4 1.4.3.4-.1.7-.2 1-.5h-.1-.2a1.75 1.75 0 0 1-1.4-.7c-.2-.2-.3-.5-.3-.8v-.3-.1c0-.1 0-.3.1-.4l.2-.5.3.5c0 .1.1.1.1.2v.1.1c.2.4.5.6.8.7h.3.2.1.1l.1-.1.1-.1v-.1-.1-.1c-.6-.3-1.1-.7-1.6-1.2-.2-.3-.3-.5-.5-.7-.5-.7-.8-1.5-.7-2.1h.4c.1-.1.2-.3.3-.4 0-.1.1-.1.1-.2l.2.1-.2-.2.1-.2.3.1-.1.1-.1.2c0 .1-.1.1-.1.2-.1.1-.2.3-.3.4l-.2.3c.2.2.5.3.8.4-.1-.3-.1-.6-.1-.9.2.4.6.7 1.1.8h.1c.1-.4.2-.9.3-1.2.3.3.5.7.2.9h.1a1.44 1.44 0 0 0 .9-1.1 2.39 2.39 0 0 1 .2.9c.3-.1.6-.3.7-.6l-.3-.2c-.1-.1-.3-.2-.4-.3-.7-.5-1.2-1-1.9-1.9-.2.4-.3.6-.4.9 0 .1-.1.1-.1.2s-.1.1-.1.2-.1.2-.1.2c0 .1-.1.1-.1.2l-.1-.1.1-.1.1-.1c0-.1.1-.1.1-.2s.1-.1.1-.2.1-.1.1-.2c.2-.4.3-.8.5-1.3l.2-.5.3.5c.8 1.1 1.3 1.6 2.1 2.2.1.1.3.2.4.3h.1l.3-.1c0 .2.1.4.1.6.1.7-.1 1.6-.5 2.4l-.3.6c-.3.4-.6.7-.9 1v.1.1a.76.76 0 0 0 .4.2h.1.2c.4-.1.8-.6 1-1.3v-.8l.5.6c.1.2.3.5.3.8a1.63 1.63 0 0 1-1.1 1.8c-.1.1-.2.1-.3.1h.1c.4.1.7.2 1.1.1.2-.1.3-.1.5-.2 0-.1.1-.1.1-.1h.1c0-.1.1-.1.1-.1 0-.1.1-.1.1-.1l.1-.1.1-.1.3-.3c-.1.3-.2.6-.5.9l-.1.1-.1.1-.1.1c0 .1-.1.1-.1.1 0 .1-.1.1-.1.1h-.1c-.1.1-.2.1-.2.1-.2.1-.4.2-.6.2-.5.1-1 .1-1.4-.1 0-.1-.1-.1-.1-.1h-.1c0-.1-.1-.1-.1-.1 0-.1-.1-.1-.1-.1 0-.1-.1-.1-.1-.1l-.1-.1h-.1c-.1 0-.2-.1-.2-.1l-.1-.1-.1-.1v-.1l-.1-.1v-.1c-.1-.1-.2-.1-.2-.2 0 0-.1.1-.1.2s-.1.2-.1.3v.1c0 .1 0 .2-.1.3-.1.2-.2.3-.4.5-.3.4-.8.6-1.3.7-.6.1-1.3-.1-1.8-.4-.1 0-.1-.1-.2-.1s-.2-.1-.2-.1l-.1-.1c0-.1-.1-.2-.1-.2 0-.1-.1-.2-.1-.2v-.1c-.1-.1-.1-.1-.1-.2v.4c0 .3-.1.6-.2.9-.2.5-.6 1-1.2 1.3-.2.1-.4.2-.7.2h-.2-.1-.3-.2-.1c-.1-.1-.2-.1-.3-.1h-.1-.1c-.1-.1-.1-.1-.2-.1h-.1c-.1-.1-.3-.2-.4-.3l.4 1zm4.3-5.6a1.11 1.11 0 0 0-1.1-1.1 1.11 1.11 0 0 0-1.1 1.1 1.11 1.11 0 0 0 1.1 1.1 1.11 1.11 0 0 0 1.1-1.1zm-4.8-.9l-.4-.1c-.1-.1-.3-.1-.4-.2l-.2-.1c-.4-.2-.8-.3-1.3-.6-.1 0-.1-.1-.2-.1s-.1-.1-.2-.1c0-.1-.1-.1-.1-.1l.9 2.1.4.4c.4-.3.6-.8.6-1.3.2.3.3.6.4.9.3-.2.4-.5.5-.8zm-.3 7.3c.2-.1.5-.2.7-.3l-.1-.3-.6.6zm26.7 19.8c0 .3-.2.6-.4.8.1 0 .2-.1.4-.1a.94.94 0 1 1 0 2c-.1 0-.2 0-.4-.1.2.2.4.4.4.8a.94.94 0 0 1-1 1c-.6 0-1-.5-1-1 0-.3.1-.6.3-.8-.1 0-.2.1-.3.1s-.2 0-.4-.1c.2.2.4.4.4.8 0 .3-.1.6-.3.8.1 0 .2-.1.3-.1.6 0 1 .5 1 1a.94.94 0 0 1-1 1c-.6 0-1-.5-1-1 0-.3.1-.6.3-.8-.1 0-.2.1-.3.1-.6 0-1-.5-1-1 0-.3.1-.6.3-.8-.1 0-.2.1-.3.1-.6 0-1-.5-1-1 0-.3.1-.6.4-.8-.1 0-.2.1-.4.1a.94.94 0 1 1 0-2c.5 0 1 .4 1 1 0 .3-.2.6-.4.8.1 0 .2-.1.4-.1.1 0 .3 0 .4.1-.2-.2-.4-.5-.4-.8 0-.6.5-1 1-1a.94.94 0 0 1 1 1c0 .3-.1.6-.3.8.1 0 .2-.1.3-.1s.3 0 .4.1c-.2-.2-.4-.5-.4-.8a.94.94 0 1 1 2 0zm-4.9-.2c0-.1-.1-.3-.3-.3-.1 0-.3.1-.3.3s.1.3.3.3.3-.2.3-.3zm1 1.7c0-.1-.1-.3-.3-.3-.1 0-.3.1-.3.3 0 .1.1.3.3.3s.3-.2.3-.3zm.4-1.8c0 .2.1.3.3.3.1 0 .3-.1.3-.3 0-.1-.1-.3-.3-.3s-.4.1-.3.3zm.6 3.5c0-.2-.1-.3-.3-.3-.1 0-.3.1-.3.3 0 .1.1.3.3.3s.3-.2.3-.3zm.3-.7c-.2-.2-.4-.5-.4-.8s.1-.6.3-.8c-.1 0-.2.1-.3.1s-.2 0-.4-.1c.2.2.4.4.4.8 0 .3-.1.6-.3.8.1 0 .2-.1.3-.1s.3 0 .4.1zm.1 2.4c0 .1.1.3.3.3s.3-.1.3-.3-.1-.3-.3-.3c-.1 0-.3.1-.3.3zm.6-3.4c0-.1-.1-.3-.3-.3-.1 0-.3.1-.3.3 0 .1.1.3.3.3s.3-.2.3-.3zm.4-1.7c0 .1.1.3.3.3s.3-.2.3-.3c0-.2-.1-.3-.3-.3-.1 0-.3.1-.3.3zm.6 3.4c0-.2-.1-.3-.3-.3-.1 0-.3.1-.3.3 0 .1.1.3.3.3s.3-.2.3-.3zm.3-.7c-.2-.2-.4-.5-.4-.8s.1-.6.3-.8c-.1 0-.2.1-.3.1s-.2 0-.4-.1c.2.2.4.4.4.8 0 .3-.1.6-.3.8.1 0 .2-.1.3-.1s.3 0 .4.1zm.1-1c0 .1.1.3.3.3s.3-.2.3-.3-.1-.3-.3-.3c-.1 0-.3.1-.3.3zm-27.5 1.7c-1.4-1.7-2.1-3.4-2.2-5 1.4 1.2 2.8 2 4.1 2.3l-1.2.2c1.2 1 2.4 1.9 3.3 2.3v-8.3l-1.4-.1-2.2-.2v-1.1l2.2-.2 1.4-.1v-1.1c-.6-.2-1-.8-1-1.5 0-1 .8-1.7 1.7-1.7 1 0 1.7.8 1.7 1.7 0 .7-.4 1.2-1 1.5v1.1l1.4.1 2.2.2v1.1l-2.2.2-1.4.1v8.3c.9-.4 2.1-1.3 3.3-2.3l-1.2-.2c1.3-.3 2.7-1.1 4.1-2.3 0 1.7-.8 3.3-2.2 5l.1-1.6c-2.1 2.8-4.6 3.8-4.8 4.6-.2-.8-2.7-1.8-4.8-4.6l.1 1.6zm4-12.3h0c0-.5.3-.8.7-.8a.68.68 0 0 1 .7.7v.1c.2-.2.3-.4.3-.7 0-.6-.5-1-1-1-.6 0-1 .5-1 1 0 .3.1.6.3.7zm4.7-21h0 0zm.1-.3h0l.1.1-.1-.1zm15.6 6.9h0v-.4c0 .1-.1.1-.1.2v.1c0 .1-.1.1-.1.2h0c.1 0 .1-.1.2-.1zm.2.9c-.1-.3-.2-.6-.2-.9l.1-.1.1-.1.1-.1.1-.1c.1 0 .1-.1.1-.1v-.1h-.1c-.1 0-.1-.1-.2-.1l-.2-.2-.1-.1c0-.1-.1-.1-.1-.2v-.1c0-.1-.1-.1-.1-.2v-.1c-.1-.1-.1-.1-.1-.2v-.1-.2-.1-.2-.1a2.22 2.22 0 0 1 2.2-2.2 2.22 2.22 0 0 1 2.2 2.2 2.22 2.22 0 0 1-2.2 2.2v.4c0 .2 0 .5.1.7.1.5.5.9.9 1.1.2.1.4.2.6.2h.1.1.1.1.1.1s-.1.1-.2.1h-.1c-.1.1-.1.1-.2.1h-.1-.1c-.1.1-.2.1-.3.1h-.1-.2-.3-.1-.2c-.2 0-.5-.1-.7-.2-.5-.2-1-.7-1.2-1.3zm.5-3.6a1.11 1.11 0 0 0 1.1 1.1 1.11 1.11 0 0 0 1.1-1.1 1.11 1.11 0 0 0-1.1-1.1 1.11 1.11 0 0 0-1.1 1.1zm1 64.5l1.9 2.3-.6.2-.4-.6-1.1.3-.1.7-.6.2.4-2.9.5-.2zm.5 1.5l-.6-.7-.1.9.7-.2zm-8.7 1.6c.1.1.1.2.1.4 0 .1-.1.2-.1.3s-.1.1-.2.2c-.1 0-.2.1-.3.1-.1.1-.3.1-.4.2h-1.3l-.1-2.7h1.3c.3 0 .5 0 .7.2.1.2.2.3.2.5v.2c0 .1-.1.2-.1.2l-.1.1-.1.1c.2 0 .3.1.4.2zm-1.7-.5h.6c.1 0 .2-.1.3-.1s.1-.1.1-.2 0-.2-.1-.2c-.1-.1-.2-.1-.3-.1h-.6v.6zm1.2.8c0-.1 0-.2-.1-.2 0-.1-.1-.1-.3-.1h-.7v.6h.7c.1 0 .2-.1.3-.1s.1-.1.1-.2zm6.1-2.7l.3 1.6-1.6-1.4-.5.2.5 2.6.6-.1-.3-1.7 1.6 1.5.5-.1-.5-2.7-.6.1zm-2.1 1.7c.1.2.1.4 0 .6s-.2.4-.3.5-.2.2-.4.3-.4.2-.6.2c-.2.1-.4.1-.6 0s-.4-.2-.5-.3-.2-.2-.3-.4c-.1-.1-.2-.3-.2-.5-.1-.2 0-.4 0-.5.1-.2.2-.4.3-.5a1.38 1.38 0 0 1 .4-.3c.2-.1.4-.2.6-.2.2-.1.4-.1.6 0 .2 0 .4.1.5.2s.2.2.3.4c.1.1.2.3.2.5zm-.8.2c0-.1-.1-.2-.1-.3-.1-.1-.1-.2-.2-.3s-.2-.2-.3-.2h-.3c-.1 0-.2 0-.3.1-.1 0-.1.1-.2.2 0 .1-.1.2-.1.3v.3c0 .1.1.2.1.3.1.1.1.2.2.3s.2.2.3.2h.3c.1 0 .2 0 .3-.1.1 0 .1-.1.2-.2 0-.1.1-.2.1-.3v-.3zm9.4-40.9a.94.94 0 0 1-1 1 1.08 1.08 0 0 1-1-1c0-.6.5-1 1-1a.94.94 0 0 1 1 1zm-.9-.2c0-.2-.1-.3-.3-.3-.1 0-.3.1-.3.3 0 .1.1.3.3.3.1 0 .3-.2.3-.3zm-10-6.1l1.2.1s-.9.7-1.1 1.9c-.1.7.2 2.3.2 2.3.1 0 .7-.1 1.2-.1.1-.5.5-.9 1-1v-.3a1.41 1.41 0 0 1 1-1.4v-.3a1.54 1.54 0 0 1 1.5-1.5c.4 0 .7.2 1 .4.3-.2.6-.4 1-.4s.7.2 1 .4c.3-.2.6-.4 1-.4a1.54 1.54 0 0 1 1.5 1.5v.3a1.41 1.41 0 0 1 1 1.4v.3c.5.1.9.5 1 1 .6 0 1.4.1 1.5.1 0 0 .3-1.6.2-2.3-.1-1.2-1.1-1.9-1.1-1.9l1.2-.1c-.3-1.6-1.3-2.2-2.9-1.8.2-.4.6-.6 1.3-.6-.8-1.2-2.1-1.4-3.3-1-1 .3-1.6 1.1-1.9 1.7 0-1.1.4-2.3 1.6-2.6l-.2-.7c-1.3.3-2 1.4-2.1 3-.3-.6-.9-1.3-1.8-1.5-1.1-.3-2.5-.2-3.3 1 .7 0 1.1.3 1.3.6-1.8-.3-2.7.3-3 1.9zm11.9 4.5a.94.94 0 0 1-1 1c-.6 0-1-.5-1-1 0-.6.5-1 1-1 .6 0 1 .5 1 1zm-1-.2c0-.2-.1-.3-.3-.3-.1 0-.3.1-.3.3 0 .1.1.3.3.3s.4-.1.3-.3zm-1.4-19.6s-.1.1-.2.1h-.1a1.78 1.78 0 0 1-1-1.6c0-.3 0-.5.1-.7.2-.3.3-.5.6-.7l.5-.3v.6c0 .3 0 .6.1.8s.3.6.6.7h.1.1.1.1.1.1v-.2c-.1-.1-.1-.2-.2-.3 0-.1-.1-.1-.1-.2l-.1-.1v-.1c-.2-.3-.3-.7-.4-1.1-.2-1.2-.1-2.4.4-3l.3.2h.1c.1-.1.3-.1.4-.2l.2-.1c.4-.2.8-.3 1.2-.6.1 0 .1-.1.2-.1s.1-.1.2-.1l.1-.1.6-.4c.1-.1.2-.1.3-.2l.4.3-2.6 6.1-1.1 2.5-.4 1c.1 0 .1.1.1.1a1.08 1.08 0 0 1 .3.7v.1.1.1.1c-.1.2-.3.4-.5.5l-.1.1-.7.6v.1s-.1 0-.1.1l-.1.1-.1.1c-.1 0-.1.1-.1.1-.1 0-.1.1-.1.1v.2.1.1.1.1.1.1.2c0 .3 0 .5.1.8v.3.1h2.7 2.2s.1-.1.1-.2c.3-.7.5-1.3 1.3-1.4.4 0 .6.1.8.2.2-.1.3-.2.5-.2.7 0 1.3.9 2 1.4.6.4 4 2.5 4.1 2.6 1.2-1.4 3-2.7 4.4-3.8.7-.6 1.4-1.1 1.8-1.5-.4-.2-1.1-.2-1.7-.2-.5.3-.9.5-1.2.5s-.7-.2-.9-.7c0 .1-.1.1-.2.1-.3 0-.6-.1-.7-.3s-.2-.4-.1-.6c0 0 0-.1.1-.2-.2-.2-.3-.4-.2-.8.1-.5.8-1 1.6-1.5a6.57 6.57 0 0 0 1.7-1.2l.1-.1c.7-.8 1.5-1.6 1.8-2.3.2-.5 1.2-.9 2.1-1-.4-1.7 1-3.3 2.4-4.8 1.1-1.1 2.4-3.8 2.4-3.8s-.2 3.1-1.8 6.2c.5-.5 1.7-1.3 2.4-1.7 2.2-1.3 3-3 3-3s-.1 2-2.1 4.1c-.8.9-1.4 1.6-1.8 3.2.3-.2.6-.3.9-.4.4-.2.9-.2 1.3-.3 1-.2 1.7-.3 2.2-.9.2-.1.4-.1.5.1 0 .1 0 .2-.1.4.1 2.1-.6 3.2-2.1 3.4-.2.9-1.3 1.7-2.2 2 .4 4.6-1.2 7.2-2.2 8.8-.2.3-.3.5-.4.7-.3.4-.3.5-.2.7 1.8 4.7 1.8 7.8 1.8 8.4 0 .2.5.8.9 1.3 1.2 1.6 3.1 4 3.2 6 3 1.2 2.3-2.3.8-4.8-.8-1.2-1.3-2.7-1.3-4.1 0-1 .4-1.7.9-2.4 1.4-2.1 1-3.5 1-3.5l.4.4c1.7 1.9 1.2 4.7 1.2 4.7-.7-.3-1.2-.1-1.2-.1 1.9 1.6 1.2 3.9 1.2 3.9-.2-.1-.8-.5-1.2-.5h-.1c-.1.2.4 1.2.7 2 .5 1.2 1.1 2.5 1.3 3.3 0 3.6-2.5 3.2-3.6 2.8 0 .8-.1 1.6-.3 2.2a18.03 18.03 0 0 1-1.1 2.9c-.5 1-.9 1.8-.6 2.6.1.6.4.7.8.9.2.2.5.3.7.5.4.4.3.8.2 1.1v.1c.4.3.7.6.7 1s-.3.7-.6 1.1c-.2.3-.3.5-.4.8-1.1 2.8-1.6 4-2.2 7.5.3.4.2 1 .1 1.3s-.4.5-.7.6l-.3 1.6c.8.2 1.6.4 2.4.4h.5.8c-4.2 3.9-9.9 7.1-15.6 8.5-.6 1.2-1.4 2.4-2.4 3.6h-.1a22.74 22.74 0 0 1-5.3-1.2c-4.7 3.7-11.7 5.8-19 5.8s-14.3-2.1-19-5.8c-1.6.7-3.4 1.1-5.3 1.2h-.1c-1-1.2-1.8-2.4-2.4-3.6-5.7-1.4-11.4-4.6-15.6-8.5h.8.6.1c.2-.1.4-.1.6-.1h.1c.2 0 .3-.1.5-.1h.1c.1 0 .3-.1.5-.1h.1c.1 0 .3-.1.4-.1h.1c.2-.1.3-.1.5-.2 0-.1.1-.1.1-.1.2-.1.3-.1.4-.2 0-.1.1-.1.1-.1.1-.1.3-.1.4-.2h.1c-.4-.5-.8-1.2-1.1-1.8-.5-.8-1-1.7-1.4-1.7s-.8-.2-1-.5-.2-.8-.1-1.2c.4-1.1-.5-3.1-.5-3.1-.4-1.4-.8-2-1.1-2.5-.3-.6-.5-.9-.5-1.7 0-1 1.2-2.2 2.3-3.3l.2-.2c1-1 .5-1.6-.6-2.8-.9-1-2-2.1-2.1-3.8v-.3a1.69 1.69 0 0 1-1 .3c-.6 0-1.2-.4-1.7-1.1s-.7-1.6-.7-2.5c0-1 .6-2.3 1.1-3.5.4-.7.8-1.8.7-2h-.1c-.4 0-1 .4-1.2.5l-.3-.3c.6-.6.7-2.2.2-4.5-.3-1.3.1-2.4 1.3-3.6l.4-.4v.6c0 1.3.5 2.1 1 2.9.5.7.9 1.4.9 2.4 0 1.3-.7 2.8-1.3 4.1-.5 1-.9 1.9-.9 2.5 0 1.2.5 2.1 1.1 2.1.2 0 .4-.1.7-.4.7-3 2.9-5.3 4.8-7.2 1.3-1.3.1-4.1-1.3-7.3-1.1-2.7-2.4-5.7-2.4-8.3 0-4.6 2.5-9.6 7.2-10.4.2-.6.5-1 .9-1.2h.1c.3 0 .5 0 .6.2.2.2.2.6.2 1 .7.1 1.5.2 2.3.4l.2.1-.3 1.8c.6.4 2 1.6 2.1 1.8l.2.4c.5.7 1.7 2 3.6 3.3 1.2.9 2.4 1.9 2 2.8-.1.3-.3.8-.3 1.6 0 .4-.1.7-.3.9-.1.1-.2.2-.4.2-.2.8-.8.9-1 .9-.5 0-.9-.2-1.1-.5-.3-.3-1.4-1.1-2.1-1.1-.5 0-2.5-.1-4-.7.1.3.2.5.3.7.2.4.4.7.6.8 2.9 1.3 4.8 3 5.9 4.8.8-.7 2.3-2.6 3.2-3.8l.9-1.1c.3-.3.6-.4.9-.4s.5.1.7.2c.2-.3.6-.4.9-.4.8 0 1.2.8 1.6 1.5.1.2.2.3.3.5h1.5 2.4v-.1-.3c.1-.3.1-.5.1-.8v-.2-.1-.1-.1-.1-.1-.1c-.1-.1-.1-.2-.1-.2-.1 0-.1-.1-.1-.1-.1 0-.1-.1-.1-.1l-.1-.1-.1-.1-.1-.1v-.1l-.7-.6c0-.1-.1-.1-.1-.1-.2-.1-.4-.3-.5-.5v-.1-.1-.1-.1c0-.3.1-.5.3-.7l.1-.1-.3-.7c4-1.6 8.2-2.4 12.6-2.4 4.6 0 9.1.9 13.3 2.7l.3-.8.4-1zm1.4-5.5c.1.3.3.6.5.8a2.47 2.47 0 0 1 .4-.9 1.3 1.3 0 0 0 .5 1.3h.1l.4-.4.9-2.1c0 .1-.1.1-.1.1-.1 0-.1.1-.2.1s-.1.1-.2.1c-.5.3-.9.4-1.3.6l-.2.1c-.1.1-.3.1-.4.2l-.4.1zm-30.7 14.1h-3v1.5 14.1c0 6 1.8 11.9 5.1 17.3 7.9-7.7 13.2-19.5 13.8-32.9h-15.9zm5.1-1.7c-.1 0-.2.1-.2.1v.2.1h0 1.2c3.2-1.3 6.7-2 10.3-2 3.5 0 7 .7 10.3 2h1.2v-.1-.1-.1c-.1 0-.1-.1-.2-.1-3.5-1.5-7.4-2.3-11.3-2.3s-7.7.8-11.3 2.3zm9.3-2.6l-2.4-3h-.1l-1.4 3.5c1.2-.3 2.6-.5 3.9-.5zm1.9-.2c.7 0 1.3.1 2 .1l-1.9-3.3-1.9 3.3c.6 0 1.3 0 1.8-.1zm6.1.6l-1.4-3.5h-.1l-2.4 3c1.4.1 2.7.3 3.9.5zm4 1.2l-.9-3.7h-.1l-2.8 2.6c1.3.3 2.5.6 3.8 1.1zm1.5.6c0-.1 0-.2.2.2v-.3-.1-.2-.2-.1-.2-.1c.1-.1.1-.1.1-.2v-.1c.1-.1.1-.2.1-.2v-.1c0-.1.1-.2.1-.2v-.1l-1.8 1.4c.4.1.9.3 1.3.5zm-11.4-.5c-3.2 0-6.2.5-9.1 1.5h18.1c-2.8-1-5.9-1.5-9-1.5zm-6.3-1.2l-2.7-2.6h-.1l-.9 3.7c1.3-.5 2.5-.8 3.7-1.1zm-3.7.9l-1.8-1.4v.1c.1.1.1.1.1.2v.1c.1.1.1.1.1.2v.1c.1.1.1.1.1.2v.1.2.1.2.2c.1.1.1.2.2 0v.2c.4-.2.9-.3 1.3-.5zm17.8 35.7c.5-.4.8-1 .8-1.7 0-1.2-.9-2.1-2.1-2.1a1.69 1.69 0 0 0-1 .3l-1-1.5h-9l-1.2 1.5a1.69 1.69 0 0 0-1-.3c-1.2 0-2.1.9-2.1 2.1 0 .7.3 1.3.8 1.7l-.4.6c-.2.4-.3.6.2 1.2.4.4.7.8 1.1 1.3 1.9 2.3 4 4.9 6.5 7.2.3.3.7.3 1 0 2.5-2.3 4.6-4.9 6.5-7.2.4-.4.7-.9 1.1-1.3.5-.6.5-.8.2-1.2l-.4-.6zm-2.8-6.8h-10.1l.6 1h9l.5-1zm-29.2-23.3c.3.9.7 2.3.6 3.7.1.1.3.1.4.2 1.2-1.5 2-2.8 2.5-3.9v-3.7h4.1c0-.1-.1-.2-.1-.3-.3-.7-.6-1.3-1.2-1.3-.2 0-.4.1-.5.2l-.3.3-.4-.3c-.1-.1-.3-.1-.4-.1-.2 0-.4 0-.6.2-.1.2-.4.6-.8 1.1-1 1.3-2.4 3.2-3.3 3.9zm1.6 4c.5.2.8.2 1.1.3s.6.3.9.4v-3.7c-.5.9-1.1 1.8-2 3zm-6.3-8c2.8 2.6 2.1 4.5 2.1 4.5.1.4 1.2 1.4 1.7 1.8l.5.5c.1.1.3.3.5.4 0 0 .3-4.3-4.8-7.2zm-1.4 7.7c.1 0 1.5 2.1 5.3 2.1 1.4 0 3.7.1 3.7.8 0 .6.3 2.5.3 4.3 0 .9-1.3.4-1.3 1.7 0 .6-.3 1.2-.9 1.4h-.3l-.2-.6-1 .2.2 2.8 1.3-1.4h.1c.2 0 .4-.1.6-.2.6-.4.9-1.3.9-2v-.1l.9-.5v-6.9c0-.3-.7-.7-1.3-.7-.4 0-1.1-.4-1.8-.7h-.1c-.5-.2-1.1-.6-1.4-.9-.1-.2-.3-.3-.5-.5-1.2-1-1.6-1.7-1.9-2.1-.3.8.9 3.1.3 3.7-.7.7-2.1-.7-2.9-.4zm-.2 4.5c-1.1 1.6-2.5 3.2-2.8 5.1.1.2.8 2.7 1 3.8.5-.4.7-.5 1.2-.6-.3-1 0-2.1.6-3 .1-.1.2-.3.5-.6.7-.7 1.4-1.2 2-1.8 1.4-1.2 2.6-2.3 3.3-3.9-.9 0-1.8 0-2.4-.2-.3 0-.6-.1-.8-.1-.5-.1-.9-.1-1.3-.8-.4-.6-.9-1.3-1.3-1.6-.3.7 1.4 1.6 0 3.7zm2.3 14.6c.6-.8 1.2-1.7 1.6-2.5.6-1.2.8-2.3.7-3.2-.1-.4-.2-.7-.4-1-.6-1-2-1.5-3.8-1.6h-.4a2.8 2.8 0 0 0 0 2.2l.1.3h-.3c-.4 0-.8.2-1.2.5 2.6.5.2 5.4-.2 7.1-.2 1.2-.2 2 1.5 2.7.4.1.7.2 1 .4 1.5.7 2.1 1.6 2.6 2.3.4.5.6.8 1 .8.1 0 .2-.1.3-.4.1-.2.3-.6.7-.6 1 0 1.7 3.4 1.7 4.6h2.2c-.4-.4-.9-1.3-1.2-1.5l-.1-.1v-.1c-.1-.4-.2-.7-.3-1.1-.1-.7-.2-1.2-.9-1.9-.4-.4-1.2-.7-2-1-1.5-.6-3.1-1.2-3.9-2.7-.1-.1-.1-.3-.1-.4-.1-.6.5-1.6 1.4-2.8zm11.4 23.9c-.5-1-1.2-2.6-1.3-2.9l-.3-1.2c-.1-.6-.3-1.4-.7-2.3-.2-.5-.4-.9-.8-1.3l-.1-.1c-.1-.1-.3-.1-.4-.1a.68.68 0 0 0-.7.7c0 .2 0 .3.1.4s.2.1.2.2c.8 1 1.4 2.1 1.7 3.3l.2.6-.5-.4c-.3-.2-.6-.5-1-.7.4.5.7 1.1 1 1.6.4.9.7 1.9.7 3v.7l-.4-.6c-.2-.3-.3-.5-.5-.7-.1-.1-.1-.1-.4-.1.3.5.4 1 .4 1.5.6.4 1.2.7 1.8 1.1 1-1.3 1.7-2.5 2.3-3.7l-.3-.2c-.4-.3-.8-.6-1.3-.9 0 .3.3 2.1.3 2.1zm33.4 0s.2-1.7.3-2.1c-.4.3-.9.6-1.3.9l-.3.2c.5 1.2 1.3 2.4 2.2 3.6.6-.3 1.2-.7 1.8-1.1 0-.5.1-1 .3-1.5-.1 0-.1.1-.2.2-.1.2-.3.4-.5.7l-.4.6v-.7c0-1.1.3-2.1.7-3 .3-.6.6-1.1 1-1.6-.3.2-.7.5-1 .7l-.5.4.2-.6c.3-1.2.9-2.4 1.7-3.3l.2-.2c.1-.2.1-.3.1-.4a.68.68 0 0 0-.7-.7c-.2 0-.3 0-.4.1l-.1.1c-.3.3-.6.8-.8 1.3-.4 1-.6 1.7-.7 2.3l-.3 1.2c-.1.3-.8 1.9-1.3 2.9zm16.3-30.5l.1-.2v-.1c.3-1.2-.1-2.3-.9-3.2-.1 1.4-1.8 3.2-3.7 5l-1.2 1.2c-2 2.1-1.4 3.6-.8 5.1.1.3.3.7.4 1.1 3.3-1.5.9-3.6 1.7-4.5.6-.7 1.7.1 2.9-.2 1.1 0 1.6-1.8 2.3-1.3l.1-.1c.3-.3.6-.5.8-.8-.2-.5-.8-1.2-1.7-2zm-10 18.3h1.6l.5-1.5h.1.1c.3 0 .5-.2.5-.3.1-.2.1-.5-.1-.7v-.2c.8-1.5 1.7-2.7 2.7-3.9 0-.6-1-1-1.6-.6-1.1 3.3-3.2 6.3-3.8 7.2zm-.5 3.5c-.7 0-1.3.2-1.9.5.5.2.8.6.8 1.1 0 .2-.1.4-.2.6-.1.1-.2.1-.2.2-.6.8-1.1 1.6-1.4 2.5.6-.4 2.3-1.5 3-1.9 0 0-2.3 2.7-2.8 3.7a8.3 8.3 0 0 0-.6 2.1l.1-.1c.5-.6.7-1 1.3-1.5 0-.1.1-.1.2-.2l1.3-1s-2.4 2.7-2.1 5.6c.9-1.6 3-3.5 4.5-4.7.1-.1.1-.2.2-.2.2-.2.4-.3.7-.7.5-.7.8-1.5.8-2.3 0-2-1.6-3.7-3.7-3.7zm4 6.8s-.5 1.5-1.5 2.7c1.8-.8 2.8-1.9 3.1-3 .1-.8-.1-1.7-.7-2.5-.1.8-.7 2-2.1 2.9-.1.1-.3.2-.4.3l-.2.2c-1.6 1.2-3.2 2.8-4.1 4.1.6-.5 1.2-.9 1.8-1.3 3.3-2.2 4.1-3.4 4.1-3.4zm-12.1.9c-4.5 1.9-9.3 2.9-14.3 2.9s-9.8-1-14.3-2.9c-.7 1.6-1.8 3.3-3.2 4.9 5.5 2.5 11.4 3.7 17.5 3.7 6 0 11.9-1.2 17.4-3.7-1-1.3-2.3-3-3.1-4.9zm-34.8-7.1c-.5-.3-1.1-.5-1.8-.5-2.1 0-3.8 1.6-3.8 3.7 0 .8.3 1.6.8 2.3.3.4.5.5.7.7 0 .1.1.1.2.2 1.5 1.1 3.6 3.1 4.5 4.7.3-2.7-1.6-5.2-2-5.5l1.2.9c0 .1.1.1.2.2.6.6.9.9 1.3 1.5.1 0 .1.1.1.1-.1-.8-.3-1.5-.6-2.1-.4-1-2.8-3.7-2.8-3.7.7.4 2.4 1.5 3 1.9a7.68 7.68 0 0 0-1.4-2.5l-.2-.2c-.1-.2-.2-.4-.2-.6 0-.5.3-1 .8-1.1zm-6.1 6s.9 1.4 4.2 3.5c.7.4 1.3.9 1.8 1.3-.9-1.3-2.5-2.9-4.1-4.1-.1-.1-.1-.2-.2-.2-.1-.1-.3-.2-.4-.3-1.4-.9-2-2.1-2.1-2.9-.7.8-.9 1.7-.7 2.5.3 1.2 1.4 2.2 3.1 3-1-1.2-1.6-2.8-1.6-2.8zm-7.3-20c.7-1 1.1-2.2 1-3.5-1.2 3.4-4.8 6.5-6.1 6.8-.3.8.1 6.7.4 7.3.2.4.6.6.9.9.4.3.8.6 1.1 1.1.4 0 1.8.3 2.6.7.1-.1.1-.2.2-.3l1.9-3.1 3.5 5.7 3.5-5.7h1c0-1.7-.6-4-1-4-.1 0-.2.1-.3.4-.1.2-.3.6-.7.6-.7 0-1-.4-1.4-1-.5-.6-1-1.4-2.4-2.1-1.1-.6-2.2-.9-3-1.1-1-.2-1.5-.4-1.7-.8-.2-.6.2-1.3.5-1.9zm4.4-31.2c.2-.4.9-1.5 1.6-1.5.4 0 1 0 1.5.1.9.4 1.1.2 1.1.2s-.9-.6-1.9-1c-.5-.2-1.6.3-1.6.3-.8.7-1.2 1.3-1.3 1.8.2 0 .4 0 .6.1zm5.4-.5c-1-.4-2.2-.2-3-.4s-1.3.4-1.7 1h.4c.2-.4.4-.8.9-.7 1.4.2 2.3-.1 3.4.1h0zm.5-1c0 .2.3.7.3 1 .3 0 .3-1 .1-1.3-.1-.2-.4 0-.4.3zm-3.5-3.8a12.61 12.61 0 0 0 3.1 2.9v-.2c-.5-.3-1.4-1.2-2.4-2.7h-.7zm-2.2-.8s.4.7.8 1c.4.2.9.2 1.1.2-.1-.2-.1-.7-.5-1-.5-.4-1.4-.2-1.4-.2zm-1-2.8a1.08 1.08 0 0 0 .3.7c.5.6.5.9.9 1.4 0-.6 0-.9-.2-1.4-.3-.2-.7-.5-1-.7zm-1.8-1.5c.1 1.2.3 2.6.7 3 .6.5 1.2 1.6 1.2 2 0 1.3 1.2 2 2.7 1.6 1.1 1.2 2.3 1.9 3.4 2.4v-.2c-1.5-.9-2.5-1.8-3-2.8-1 .2-1.3.1-2-.4a1.96 1.96 0 0 1-.9-1.7c-.9-.4-1.5-1.7-1.9-3.9l.1-.8h-.3v.8zm-.5 3.7c.3.8.4 1.2.7 1.9.4.8.9 1.1 1.1 1.9.2.9.1 1.6-.4 2.3.1 0 .2.1.3.1.5-1 1.1-1.6 1.8-2 .3-.1.8.1 1.2-.3-.9 0-1.4-.2-2.1-.8s-.7-1.3-1.2-2c-.4-.5-.7-.7-1-1.3-.4-.8.2-1.3-.3-2 0 0-.3 1.5-.1 2.2zm-1.4-3.1c0 .4.3.7.6.7s.6-.3.6-.7l-.3-.6c-.4-.9-.4-1.7 0-2.2-.7.4-.9 1.5-.9 2.8zm-1.4 2.9c.1.5.9 1.4 1.2 2.4.3.8.1 1.4.5 2.1.3.6.8.8 1.2 1.2h.1c-.6-.9-.7-1.4-.8-2.4-.2-1.4-1.2-1.8-1.5-3.6-.2-1-.5-2.9-.2-2.9v-.8c-.2 0-.4.1-.6.2v1c-.3 0 0 1.6.1 2.8zm-2.8-1.7l1 .9c-.1 0 .5.8.5 1.3 0 .7.3 1.1.7 1.8.4.6.7 1.2 1.2 1.5-.7-1.1-.9-2.1-1.2-3-.3-1.6-.8-2.2-.6-2.6l-.6-1c-.3.3-.7.7-1 1.1zm-1.6 2.7l.6.4c0 .4.4.9 1.1 1.7.6.9 1.1 1 1.8 2 .5.7 1 .8 1.7 1.1 1.2.6 2.1.9 2.5.8l-.1-.2c-.7 0-2.1-.8-2.5-1.4-.7-1.2-1.7-1.2-2.3-1.9-1-.8-1.9-3-1.6-3.2l-.6-.6c-.2.4-.4.8-.6 1.3zm-1 3.3l.6.2c.1.5 1.1 1.3 1.9 1.8.9.7 1.6 1.2 2.3 1.6s2.1.6 2.1.6c.7.1 1.7-.2 2.1-.6v-.1c-.3.2-.9.2-1.4.1-.7-.1-1.8-.5-3.2-1.1s-2.4-2.1-2.4-2.1c-.2-.8-1-.9-1-1.4l-.6-.2c-.1.4-.1.8-.4 1.2zm2 5.1a2.87 2.87 0 0 0 1.3.8c.8.3 1.4-.3 2.2-.1 1 .2 1.6.2 2.4 0 .9-.2 1.6-.9 1.8-1.5l-.1-.1c-.5.6-1.3.9-2.2.7-.7-.1-.8-.3-2-.1s-2.4.2-2.9-.8c-.4-.8-1.8-.5-1.8-1.1l-.4.1c.1.5.3 1 .4 1.5l.4-.1c0 .3.6.6.9.7zm4 3.5c.7-.3 3.5-.8 3.7-1-.7.2-1.1-.2-1.7-.2-1.1-.1-1.7.3-2.7.3-1.3.1-3.2-.4-3.2-.8l-.5.1c.2.4.3.8.5 1.2h.4c0 .3 2.6.8 3.5.4zm-.6 2.3s1.2-.3 1.8-.7 1.6-.6 2.9-.6c-.4-.3-1.1-.3-2.4 0l-1.5.4c-.5-.1-1.1-.1-1.9.2-.3.1-1.3-.1-1.3-.3h-.3c.2.2.3.5.4.8l.3-.1c0 .2.9.3 2 .3zm-1.5 1.8l.5-.2c.1.1.7 0 1.2-.2.6-.2 2.1-.4 2.6-.3-.9-.2-1.6-.3-2.4-.2-.4.1-1.4.2-1.6 0l-.5.1c.1.2.2.5.2.8zm.4 36.7l2.3-1.9a10.67 10.67 0 0 0-2.7-.8h-.1v-.1c-.3-.5-.6-.7-1-1-.3-.3-.7-.6-1-1.1-.4-.7-.7-6.9-.3-7.8.1-.1.2-.2.3-.2 1-.2 5-3.5 6-7 .6-1.9-.1-4.1-.6-5.7-.3-1-.5-1.8-.4-2.2-.3.3-.6 2.6-.6 4.5 0 2.4-1.3 4.5-2.7 5.9-2 2.1-5.1 4.5-3.4 7.6.5 1 .9 3.5.8 4.5 0 .7.2 1 .4 1.1 1.1.5 1.4.9 1.7 1.9 0 0 1.2 2 1.3 2.3zm64 6.3c-.7.7-1.8 1.3-3.1 1.8l-.9.3c.2-.2 1.1-1 1.4-1.4h-.1c-.6.6-1.3 1-2 1.5-1.1.8-2.2 1.5-2.8 2.3l-.4.5v-.4-.1-.1-.9-.1-.9l-1.5.9c.2.2.4.4.6.7l.4.5-.6.3c-5.8 2.6-12 4-18.4 4s-12.6-1.3-18.4-4l-.6-.3.4-.5c.2-.2.4-.4.6-.7l-1.5-.9v.9.1.9.1.1.4l-.4-.5c-.6-.8-1.7-1.5-2.8-2.3-.7-.5-1.4-1-2-1.5h-.1c.3.4 1.2 1.2 1.4 1.4l-.9-.3c-1.3-.5-2.4-1.1-3.1-1.8l-11.5-2.8a34.06 34.06 0 0 0 12.2 5.6c.6 1.2 1.3 2.4 2.3 3.5 1.8-.1 3.6-.5 5.2-1.2h.1c4.7 3.7 11.6 5.8 18.9 5.8s14.2-2.1 18.9-5.8h.1c1.6.6 3.3 1 5.2 1.2 1-1.1 1.7-2.3 2.4-3.5 4.7-1.1 8.7-3 12.5-5.6l-11.5 2.8zm12.7-23.7c.1-.3.3-.5.4-.8.3-.7.7-1.5 1-2.5v-.2c.4-1.2.5-2.5.4-3.8 0-.7-.3-1.3-.6-2-.3 3.8-4.1 6.5-1.2 9.3zm-1.6 5.6c.5 1.4.5 4.1.2 6.6a3.73 3.73 0 0 1-.2 1.2c-.1.4-.3.8-.5 1.4 0 0-1.1.9-1 1.8l-.8 1.1c.2.1.3.1.4.2h.1c.1.1.2.2.3.2h.1c.2.1.5.2.8.3l.5-1.7s.4-.1.6-.5c.3-.5-.1-1-.1-1s.7-4.4 2.3-8c.2-2.5-2-2.7-2.7-1.7v.1zm-4.2-3c-1-1.6-1.4-3.2-1.3-4.5-.3.3-.9.6-1.3.8-.5.2-1.1.7-1.1 1.1-.1.3.1.5.5.8.6.4.9.9.9 1.4 0 .4-.2 1-1.1 1.5-1.4.8-3.5 3-4.7 5.5.2.2.2.6.1.9-.1.4-.4.6-.8.6l-.4 1.3 3.3 5.3 3.5-5.7 1.9 3.1c.1.3.2.5.4.7.4.5 1 1.1 1.5 1.5.1.1.3.2.4.3.2-.3.5-.6.8-.9-.1-1.2.7-1.6.9-1.7h.1c.4-.8.5-1.4.6-2.3.3-2.4.4-4.9-.1-6.3-.1-.1-.6-.4-1-.6-1.1-.6-2.7-1.4-3.1-2.8zm1.3-12.9c-2.5-2.8-4.8-4-5-6.7-1.6.1-3.1.8-4.3 1.6 1 1.5 2.2 1.8 3.5 2.8 2 1.6 4.1 3.2 3.5 5.7.8.8 1.3 1.4 1.6 1.9 2.1-2.4 1.8-4 .7-5.3zm-1.8-24.4c-.4.3-.4.8-.5 1.1.3-.1.8 0 1.2-.3.5-.3.8-1.1.8-1.1s-1-.1-1.5.3zm-1.7.8c1.5-.1.9-1.7 1.7-3.2-.8.1-1.2.4-1.3.6-.3.8-1.1 1.6-1.9 2.4l-.1.1c-.5.5-1.1.9-1.7 1.3-.7.4-1.3.9-1.4 1.2-.1.4.4.6.4.6s-.6.3-.3.6.8 0 .8 0c.2-.1.5-.3.9-.5l.1-.1c.1 0 .2.1.2.2s-.1.2-.2.2-.2 0-.2-.1c-.3.2-.6.3-.8.4l.3.3c.1.1.2.1.3.1 1.8-.2 2.1-4.2 3.2-4.1zm-7.7 18.9c.7-.3 1.5-.6 2.1-.9.1 0 .1-.1.2-.1 1.3-.7 2.3-1.2 3.9-1.3 3.9-.5 1.2-5.5 3.7-5.5-3.1.1-2.6 4-5.3 4.2-1 0-1.8.4-2.5.8-.3.3-.6.5-.9.8-.7.7-1.1 1.5-1.2 2zm-4-.7c1.8-1.1 2.3-1.4 3.4-2.7-.4-1.3.1-1.8 0-2.3l-3.4-4v1.2 7.8zm-5.5 24c-3.6 5.7-8.7 10.6-14.8 14.2l-.3.2-.3-.2c-6.1-3.6-11.2-8.5-14.8-14.2-3.5-5.6-5.4-11.7-5.5-17.7l-.5-.2c0 1.1-.7 2.5-1.9 2.6l-1.3 1.5s-.4-.1-.5-.2l-.3-3.8 1.9-.3c.1-.2.1-.3.1-.6s.1-.5.3-.9c.3-.3.8-.5 1.2-.5.2-.5-.2-3.7-.2-3.7l-2.3.1c-.7 1.8-2 2.9-3.5 4.2-.6.6-1.2 1.1-1.9 1.8-.2.2-.3.4-.4.5 2 0 3.5.7 4.2 1.8.8 1.2.6 2.9-.3 4.9-.5.9-1.1 1.8-1.7 2.6-.7 1-1.5 2.1-1.3 2.4.7 1.4 2.2 2 3.6 2.5.9.4 1.7.7 2.2 1.2.8.7.9 1.4 1.1 2.1.1.4.1.7.3 1.1h.1c.8.7 1.5 1.3 1.7 1.9v.1h6.3c3.4 4.5 7.9 8.5 13 11.5l.8.5.8-.5c5.1-3 9.5-6.9 13-11.5h6.1 2.5l.6-.9c.1-.2.3-.5.5-.8 1.2-2 3-4.9 2.9-6.7-.1-.6-.3-1.3-.6-1.9-.6-1.6-1.3-3.3.9-5.6l1.2-1.2c1.7-1.7 3.6-3.5 3.5-4.8l-.1-.4c-.5-.5-1.2-1-1.8-1.5-1.3-1-3.2-1.9-3.7-3.1-.6.3-1.3.5-2 .8s-1.5.6-1.7.8c.1.7 1.4 2.8 1.8 3.1.1.1.2.1.4.1s.5-.1.7.2c.3.4.2.8.1 1.1v.3a2.23 2.23 0 0 0 .9.2h.3l.3-.1.2 2.7-.3-.1c-1.7-.3-2.9-1.4-3.5-3.2-.1-.3-1.5-1.7-2.5-2.9v.6 1.7c0 6.2-1.9 12.5-5.5 18.2zm-14.4-33.8c.6 13.4 5.9 25.2 13.8 32.9 3.3-5.4 5.1-11.3 5.1-17.3v-15.1-.5h-1.6-17.3zm-.6-9c-4.5 0-8.9.9-13.1 2.7l-.3.1-.1.1c0 .1-.1.2-.1.3v.1c0 .1.1.2.2.2.1.1.1.1.2.1 4.2-1.8 8.6-2.7 13.3-2.7 4.6 0 9 .9 13.2 2.7 0-.1.1-.1.1-.1.1 0 .2-.1.2-.2v-.1c0-.2 0-.2-.1-.3l-.1-.1-.3-.1c-4.1-1.8-8.5-2.7-13.1-2.7zm12.6.5c0 .1 0 .1 0 0 0 .1 0 .1 0 0 .1.1.1.1 0 0zm.6 19.7c0 .6-.5 1-1 1-.6 0-1-.5-1-1 0-.3.1-.6.3-.8-.1 0-.2.1-.3.1s-.2 0-.3-.1c.2.2.3.4.3.8a.94.94 0 1 1-2 0 1.08 1.08 0 0 1 1-1c.1 0 .3 0 .4.1-.2-.2-.4-.4-.4-.8 0-.3.1-.6.3-.8-.1 0-.2.1-.3.1s-.2 0-.4-.1c.2.2.4.4.4.8a.94.94 0 0 1-1 1c-.5 0-1-.4-1-1 0-.3.1-.6.3-.8-.1 0-.2.1-.3.1a1.08 1.08 0 0 1-1-1 .94.94 0 1 1 2 0c0 .3-.1.6-.3.8.1 0 .2-.1.3-.1s.3 0 .4.1c-.2-.2-.4-.5-.4-.8a.94.94 0 0 1 1-1c.5 0 1 .4 1 1 0 .3-.2.6-.4.8.1 0 .2-.1.4-.1.1 0 .3 0 .4.1-.2-.2-.4-.5-.4-.8 0-.6.5-1 1-1a.94.94 0 1 1 0 2c-.1 0-.2 0-.4-.1.2.2.4.4.4.8 0 .3-.1.6-.3.8.1 0 .2-.1.3-.1s.2 0 .3.1c-.2-.2-.3-.4-.3-.8a1.08 1.08 0 0 1 1-1c.5 0 1 .4 1 1s-.5 1-1 1c-.1 0-.3 0-.4-.1.2.2.4.5.4.8zm-4.9-3.7c0-.1-.1-.3-.3-.3s-.4.2-.3.3c0 .2.1.3.3.3.1 0 .3-.1.3-.3zm1 1.7c0-.1-.1-.3-.3-.3s-.4.2-.3.3c0 .2.1.3.3.3.1 0 .3-.1.3-.3zm1-1.6c0-.1-.1-.3-.3-.3-.1 0-.3.1-.3.3 0 .1.1.3.3.3s.3-.2.3-.3zm0 3.4c0-.1-.1-.3-.3-.3-.1 0-.3.1-.3.3s.1.3.3.3.3-.1.3-.3zm1-1.8c0-.1-.1-.3-.3-.3s-.4.2-.3.3c0 .2.1.3.3.3.1 0 .3-.1.3-.3zm.6-1.3c.2 0 .4-.2.3-.3 0-.1-.1-.3-.3-.3-.1 0-.3.1-.3.3 0 .1.1.3.3.3zm.4 3.1c0-.2-.1-.3-.3-.3-.1 0-.3.1-.3.3 0 .1.1.3.3.3s.3-.1.3-.3zm.7-1.5c.1 0 .3-.1.3-.3 0-.1-.1-.3-.3-.3s-.4.2-.3.3c0 .2.1.3.3.3zm16-16.2c-.5 0-.5.7-.9 1.1 0 0 .2-.1.4-.1s.3.1.5-.1c.1-.1-.1-.2-.1-.3 0-.2.2-.2.2-.4 0-.1 0-.2-.1-.2zm-22.6 36.7c-.2 0-.3 0-.4.1l1.1 1.7c.3-.1.4-.4.4-.7a1.11 1.11 0 0 0-1.1-1.1zm-6.2-46.8a2.22 2.22 0 0 1 2.2 2.2c0 .2 0 .5-.1.7-.1.1-.1.2-.1.2l-.1.1c-.1 0-.1.1-.1.1v.1l-.1.1v.1l-.1.1h-.1l-.1.1c0 .1-.1.1-.1.1h-.1c0 .1-.1.1-.1.1h-.1c0 .1 0 .1-.1.1h-.1c0 .1 0 .1-.1.1h-.2v.2c.1.3.3.5.5.8l.1.1.1.1h.1c0 .1.1.1.1.1 0 .1.1.1.1.1 0 .1.1.1.1.1.2.1.3.2.5.2.4.1.7 0 1.1-.1h.1c-.1 0-.2-.1-.3-.1-.7-.2-1.2-1-1.1-1.8 0-.3.1-.6.3-.8l.5-.6v.8c.2.7.5 1.2 1 1.3h.2.1c.2-.1.3-.1.4-.2v-.1-.1c-.3-.3-.6-.6-.9-1l-.3-.6c-.4-.8-.6-1.7-.5-2.4 0-.3 0-.4.1-.6l.3.1c.1-.1.3-.2.4-.3.8-.6 1.3-1.1 2.1-2.2l.3-.5.2.5c.1.5.3.9.5 1.3 0 .1.1.1.1.2s.1.2.1.2c0 .1.1.1.1.2l.1.1.1.1-.2.2.3-.1.1.1-.2.2.3-.1.1.2-.2.2.2-.1c0 .1.1.1.1.2.1.1.2.3.3.4h.3c0 .6-.2 1.4-.7 2.1-.1.3-.3.5-.5.7-.5.5-1 .9-1.6 1.2v.1.1.1l.1.1.1.1h.1.1.2.3c.3-.1.5-.3.8-.7v-.1-.1c0-.1.1-.1.1-.2l.3-.5.2.5c0 .1.1.3.1.4v.1.3c0 .3-.1.6-.3.8-.3.4-.9.7-1.4.7h-.2-.1c.3.2.6.4 1 .5.5.1 1 0 1.4-.3h0c0 .1-.1.1-.1.2 0 0 0 .1-.1.1s-.2.1-.2.1c-.1 0-.1.1-.2.1-.5.4-1.2.5-1.8.4-.5-.1-.9-.4-1.3-.7-.1-.1-.3-.3-.4-.5 0-.1-.1-.2-.1-.3v-.1c-.1-.1-.1-.2-.1-.3 0 0-.1-.1-.1-.2l-.2.2v.1l-.1.1v.1l-.1.1-.1.1c-.1 0-.1.1-.2.1h-.1l-.1.1c0 .1-.1.1-.1.1 0 .1-.1.1-.1.1 0 .1-.1.1-.1.1h-.1c0 .1-.1.1-.1.1-.4.1-.9.2-1.4.1-.2 0-.4-.1-.6-.2-.1 0-.1-.1-.2-.1 0-.1-.1-.1-.1-.1 0-.1-.1-.1-.1-.1l-.1-.1s0-.1-.1-.1l-.1-.1c-.2-.3-.4-.6-.5-1 .1-.1.1-.3.2-.4v-.2h-.1c-.1-.1-.2-.1-.2-.1 0-.1-.1-.1-.1-.1h-.1c0-.1-.1-.1-.1-.1h-.1l-.1-.1-.1-.1h-.1l-.1-.1v-.1c-.1 0-.1-.1-.1-.1v-.1c-.1 0-.1-.1-.1-.1-.1 0-.1-.1-.1-.1-.1-.1-.1-.1-.1-.2-.1-.3-.1-.5-.1-.7a2.22 2.22 0 0 1 2.2-2.2zm4.4 1.3h0c.3-.4.5-.8.7-1.1.2.3.3.7.3 1.2h.1c.5-.1.9-.4 1.1-.8 0 .3 0 .6-.1.9.3 0 .6-.2.8-.4l-.2-.3c-.1-.1-.2-.3-.3-.4 0-.1-.1-.1-.1-.2l-.1-.2c0-.1-.1-.2-.1-.2 0-.1-.1-.2-.1-.2 0-.1-.1-.2-.1-.2 0-.1-.1-.1-.1-.2s-.1-.1-.1-.2-.1-.1-.1-.2c-.2-.3-.3-.6-.4-.9-.7.9-1.2 1.3-1.9 1.9-.1.1-.3.2-.4.3l-.3.2c.2.2.4.5.7.6.1-.3.1-.6.2-.9 0 .5.4.9.5 1.3zm-5.8.9a1.11 1.11 0 0 0 1.1 1.1 1.11 1.11 0 0 0 1.1-1.1 1.11 1.11 0 0 0-1.1-1.1 1.11 1.11 0 0 0-1.1 1.1zm10.4 25.8a.94.94 0 1 1-2 0c0-.3.1-.6.3-.8-.1 0-.2.1-.3.1s-.2 0-.3-.1c.2.2.3.4.3.8a.94.94 0 1 1-2 0 .94.94 0 0 1 1-1c.1 0 .2 0 .3.1-.2-.2-.3-.4-.3-.8a1.08 1.08 0 0 1 1-1 .94.94 0 0 1 1 1c0 .3-.2.6-.4.8.1 0 .2-.1.4-.1a1.08 1.08 0 0 1 1 1zm-2.9-.2c0-.1-.1-.3-.3-.3-.1 0-.3.1-.3.3s.1.3.3.3.3-.1.3-.3zm1-1.8c0-.1-.1-.3-.3-.3s-.4.2-.3.3c0 .2.1.3.3.3.1 0 .3-.1.3-.3zm1 1.8c0-.1-.1-.3-.3-.3-.1 0-.3.1-.3.3s.1.3.3.3.3-.1.3-.3zm-15.9 20.1c0 .3.1.6.4.8l1.1-1.7c-.1-.1-.3-.1-.4-.1-.6-.1-1.1.4-1.1 1zm.8 23.9l2 .3.1-.6-1.5-.2.1-.6 1.3.2v-.5l-1.2-.2.1-.5 1.4.2.1-.5-2.1-.3-.3 2.7zm-3.3-3.4c-.1-.1-.3-.2-.5-.2-.1 0-.3-.1-.4 0-.1 0-.2 0-.3.1-.1 0-.2.1-.3.2s-.1.2-.2.3c0 .1-.1.2 0 .3 0 .1 0 .2.1.3s.1.2.2.2c.1.1.2.1.3.2s.2.1.2.2c.1 0 .1.1.1.1s0 .1.1.1v.1c0 .1-.1.1-.2.2h-.3a.76.76 0 0 1-.4-.2l-.3-.3-.5.3c.1.2.3.3.4.5l.6.3c.1 0 .3.1.4.1s.2 0 .3-.1c.1 0 .2-.1.3-.2s.1-.2.2-.3v-.3c0-.1 0-.2-.1-.3s-.1-.2-.2-.2c-.1-.1-.2-.1-.3-.2s-.2-.1-.3-.2c-.1 0-.1-.1-.1-.1l-.1-.1c.3-.4.3-.5.3-.5 0-.1.1-.1.1-.1h.3c.1 0 .2.1.3.2l.3.3.4-.3c-.1-.1-.2-.3-.4-.4zm7.7 2.3c-.1 0-.2-.1-.4-.1-.1 0-.2-.1-.3-.1s-.1-.1-.2-.1l-.1-.1v-.1c0-.1 0-.1.1-.2.1 0 .2-.1.3 0 .1 0 .2 0 .3.1s.2.1.3.2l.3-.4c-.1-.1-.3-.2-.4-.3-.2-.1-.3-.1-.5-.1h-.4c-.1 0-.2.1-.3.1-.1.1-.2.1-.2.2s-.1.2-.1.3v.3c0 .1.1.2.2.2.1.1.2.1.3.2.1 0 .2.1.4.1.1 0 .2.1.3.1s.1.1.2.1l.1.1v.1c0 .1 0 .1-.1.2-.1 0-.2.1-.3 0-.2 0-.3-.1-.4-.1s-.3-.2-.4-.3l-.4.4c.2.2.3.3.5.4s.4.1.6.2h.4c.1 0 .2-.1.3-.1.1-.1.2-.1.2-.3.1-.1.1-.2.1-.3v-.3c0-.1-.1-.2-.1-.2-.1-.1-.2-.1-.3-.2zm-4.8-1.5c0 .1.1.2.1.3v.4c-.1.2-.1.3-.2.4s-.2.1-.3.2-.3.1-.4.1h-.4l-.4-.2-.2.8-.6-.1.6-2.6 1.1.2c.1.1.3.1.4.2l.3.3zm-.5.6c0-.1 0-.2-.1-.3 0-.1-.2-.2-.3-.2l-.5-.1-.2.8.5.1c.2.1.3.1.4 0s.2-.2.2-.3z" fill="#5d687e"/></svg>
